<svg width="0" height="0" class="hidden">
  <symbol fill="none" xmlns="http://www.w3.org/2000/svg" viewBox="0 0 12 11" id="telegram">
    <path d="M4.70847 7.09058L4.50997 9.88258C4.79397 9.88258 4.91697 9.76058 5.06447 9.61408L6.39597 8.34158L9.15497 10.3621C9.66097 10.6441 10.0175 10.4956 10.154 9.89658L11.965 1.41058L11.9655 1.41008C12.126 0.662081 11.695 0.369581 11.202 0.553081L0.556967 4.62858C-0.169533 4.91058 -0.158533 5.31558 0.433467 5.49908L3.15497 6.34558L9.47647 2.39008C9.77397 2.19308 10.0445 2.30208 9.82197 2.49908L4.70847 7.09058Z" fill="#5D6C7B"></path>
  </symbol>
  <symbol fill="none" xmlns="http://www.w3.org/2000/svg" viewBox="0 0 12 13" id="viber">
    <path d="M11.4957 4.73541C11.4957 3.60831 11.0541 2.54593 10.2519 1.74384C9.4498 0.941742 8.38742 0.5 7.26041 0.5H4.75085C4.75085 0.5 4.75085 0.5 4.75076 0.5C3.62384 0.5 2.56146 0.941742 1.75946 1.74374C0.957367 2.54584 0.515625 3.60831 0.515625 4.73532V6.70792C0.515625 7.58069 0.78186 8.42032 1.28558 9.13599C1.72998 9.76733 2.32764 10.2604 3.02444 10.5732V11.7062C3.02444 12.2921 3.35248 12.4999 3.63336 12.5C3.83405 12.5 4.03482 12.4009 4.23019 12.2057L5.49243 10.9432H7.2605C8.38751 10.9432 9.44989 10.5015 10.252 9.6994C11.0541 8.89731 11.4958 7.83493 11.4958 6.70792L11.4957 4.73541ZM8.27197 8.07864L7.33997 9.01056C7.09644 9.25409 6.77179 9.38803 6.42572 9.38803C6.07965 9.38803 5.755 9.254 5.51147 9.01056L2.58252 6.08151C2.07852 5.57733 2.07852 4.75711 2.58252 4.25302L3.51453 3.32111C3.58044 3.2551 3.6698 3.21811 3.76309 3.21811C3.85629 3.21811 3.94574 3.2551 4.01166 3.32111L5.34302 4.65247C5.40894 4.71838 5.44592 4.80783 5.44592 4.90103C5.44592 4.99423 5.40894 5.08368 5.34293 5.1496L5.05902 5.4335L6.15948 6.53397L6.44348 6.24997C6.58081 6.11273 6.80338 6.11273 6.94061 6.25006L8.27197 7.58142C8.33798 7.64734 8.37497 7.73679 8.37497 7.82999C8.37497 7.92328 8.33798 8.01273 8.27197 8.07864ZM5.73944 3.91299C5.73944 3.7189 5.89682 3.56143 6.091 3.56143C7.30911 3.56143 8.30017 4.5524 8.30017 5.77042C8.30017 5.9646 8.14279 6.12198 7.94861 6.12198C7.75452 6.12198 7.59705 5.9646 7.59705 5.77042C7.59705 4.94012 6.92148 4.26456 6.091 4.26456C5.89682 4.26456 5.73944 4.10718 5.73944 3.91299ZM9.45474 6.12216C9.26056 6.12216 9.10318 5.96469 9.10318 5.7706C9.10327 4.96594 8.78989 4.20953 8.22098 3.64053C7.65198 3.07162 6.89557 2.75824 6.09091 2.75824C5.89682 2.75824 5.73935 2.60086 5.73935 2.40668C5.73935 2.21259 5.89682 2.05511 6.09091 2.05511C7.08334 2.05511 8.01636 2.44165 8.71811 3.1434C9.41995 3.84515 9.8064 4.77817 9.8063 5.7706C9.8063 5.96469 9.64893 6.12216 9.45474 6.12216Z" fill="#5D6C7B"></path>
  </symbol>
  <symbol fill="none" xmlns="http://www.w3.org/2000/svg" viewBox="0 0 13 13" id="whatsup">
    <path d="M6.49685 0.503787C3.18509 0.50449 0.500956 3.18978 0.501659 6.50153C0.501893 7.64828 0.830971 8.7709 1.44982 9.73633L0.516884 12.1569C0.467202 12.2856 0.531289 12.4303 0.660026 12.48C0.688813 12.4911 0.719381 12.4968 0.75023 12.4967C0.778854 12.4969 0.807267 12.492 0.834181 12.4822L3.33271 11.5902C6.14383 13.341 9.842 12.4815 11.5928 9.67033C13.3436 6.85918 12.484 3.16104 9.67286 1.41026C8.71994 0.81675 7.61952 0.502686 6.49685 0.503787Z" fill="#5D6C7B"></path>
  </symbol>
  <symbol fill="none" xmlns="http://www.w3.org/2000/svg" viewBox="0 0 50 50" id ="magnifier">
    <path d="M 21 3 C 11.601563 3 4 10.601563 4 20 C 4 29.398438 11.601563 37 21 37 C 24.355469 37 27.460938 36.015625 30.09375 34.34375 L 42.375 46.625 L 46.625 42.375 L 34.5 30.28125 C 36.679688 27.421875 38 23.878906 38 20 C 38 10.601563 30.398438 3 21 3 Z M 21 7 C 28.199219 7 34 12.800781 34 20 C 34 27.199219 28.199219 33 21 33 C 13.800781 33 8 27.199219 8 20 C 8 12.800781 13.800781 7 21 7 Z" fill="white"></path>
  </symbol>
<symbol viewBox="0 0 20 12" fill="none" xmlns="http://www.w3.org/2000/svg" id="balance">
<mask id="path-1-inside-1_1_15997" fill="white">
<path d="M19.4141 7.26393H18.7766L16.7349 2.32553C17.0208 2.28663 17.2413 2.04217 17.2413 1.74561C17.2413 1.42202 16.979 1.15967 16.6554 1.15967H11.6177C11.3769 0.490884 10.7363 0.0113525 9.98559 0.0113525C9.23488 0.0113525 8.59422 0.490923 8.3534 1.15967H3.34465C3.02105 1.15967 2.75871 1.42202 2.75871 1.74561C2.75871 2.04217 2.97926 2.28663 3.26512 2.32553L1.22344 7.26393H0.585938C0.262344 7.26393 0 7.52627 0 7.84987C0 10.132 1.85668 11.9887 4.13883 11.9887C6.42098 11.9887 8.27766 10.132 8.27766 7.84987C8.27766 7.52627 8.01531 7.26393 7.69172 7.26393H7.05418L5.01504 2.33155H8.3534C8.59422 3.00034 9.23484 3.47987 9.98559 3.47987C10.7363 3.47987 11.3769 3.00034 11.6177 2.33155H14.985L12.9459 7.26393H12.3083C11.9847 7.26393 11.7224 7.52627 11.7224 7.84987C11.7224 10.132 13.5791 11.9887 15.8612 11.9887C18.1434 11.9887 20 10.132 20 7.84987C20 7.52627 19.7377 7.26393 19.4141 7.26393ZM4.13883 10.8168C2.70332 10.8168 1.5027 9.79217 1.22996 8.43581H7.0477C6.77496 9.79217 5.57434 10.8168 4.13883 10.8168ZM5.78613 7.26393H2.49152L4.13883 3.2794L5.78613 7.26393ZM9.98555 2.30799C9.67543 2.30799 9.42316 2.05573 9.42316 1.74561C9.42316 1.43549 9.67543 1.18323 9.98555 1.18323C10.2956 1.18323 10.5479 1.43549 10.5479 1.74561C10.5479 2.05573 10.2957 2.30799 9.98555 2.30799ZM15.8612 3.2794L17.5085 7.26393H14.2139L15.8612 3.2794ZM15.8612 10.8168C14.4257 10.8168 13.225 9.79217 12.9523 8.43581H18.77C18.4973 9.79217 17.2966 10.8168 15.8612 10.8168Z"/>
</mask>
<path d="M19.4141 7.26393H18.7766L16.7349 2.32553C17.0208 2.28663 17.2413 2.04217 17.2413 1.74561C17.2413 1.42202 16.979 1.15967 16.6554 1.15967H11.6177C11.3769 0.490884 10.7363 0.0113525 9.98559 0.0113525C9.23488 0.0113525 8.59422 0.490923 8.3534 1.15967H3.34465C3.02105 1.15967 2.75871 1.42202 2.75871 1.74561C2.75871 2.04217 2.97926 2.28663 3.26512 2.32553L1.22344 7.26393H0.585938C0.262344 7.26393 0 7.52627 0 7.84987C0 10.132 1.85668 11.9887 4.13883 11.9887C6.42098 11.9887 8.27766 10.132 8.27766 7.84987C8.27766 7.52627 8.01531 7.26393 7.69172 7.26393H7.05418L5.01504 2.33155H8.3534C8.59422 3.00034 9.23484 3.47987 9.98559 3.47987C10.7363 3.47987 11.3769 3.00034 11.6177 2.33155H14.985L12.9459 7.26393H12.3083C11.9847 7.26393 11.7224 7.52627 11.7224 7.84987C11.7224 10.132 13.5791 11.9887 15.8612 11.9887C18.1434 11.9887 20 10.132 20 7.84987C20 7.52627 19.7377 7.26393 19.4141 7.26393ZM4.13883 10.8168C2.70332 10.8168 1.5027 9.79217 1.22996 8.43581H7.0477C6.77496 9.79217 5.57434 10.8168 4.13883 10.8168ZM5.78613 7.26393H2.49152L4.13883 3.2794L5.78613 7.26393ZM9.98555 2.30799C9.67543 2.30799 9.42316 2.05573 9.42316 1.74561C9.42316 1.43549 9.67543 1.18323 9.98555 1.18323C10.2956 1.18323 10.5479 1.43549 10.5479 1.74561C10.5479 2.05573 10.2957 2.30799 9.98555 2.30799ZM15.8612 3.2794L17.5085 7.26393H14.2139L15.8612 3.2794ZM15.8612 10.8168C14.4257 10.8168 13.225 9.79217 12.9523 8.43581H18.77C18.4973 9.79217 17.2966 10.8168 15.8612 10.8168Z" fill="#282739"/>
<path d="M18.7766 7.26393L15.08 8.79216L16.1019 11.2639H18.7766V7.26393ZM16.7349 2.32553L16.1956 -1.63794L11.0571 -0.938671L13.0384 3.85377L16.7349 2.32553ZM11.6177 1.15967L7.85429 2.51483L8.80665 5.15967H11.6177V1.15967ZM8.3534 1.15967V5.15967H11.1644L12.1168 2.5149L8.3534 1.15967ZM3.26512 2.32553L6.96166 3.85379L8.94296 -0.938575L3.80455 -1.63793L3.26512 2.32553ZM1.22344 7.26393V11.2639H3.89809L4.91998 8.79219L1.22344 7.26393ZM7.05418 7.26393L3.35762 8.79216L4.3795 11.2639H7.05418V7.26393ZM5.01504 2.33155V-1.66845H-0.966991L1.31848 3.85977L5.01504 2.33155ZM8.3534 2.33155L12.1168 0.97639L11.1645 -1.66845H8.3534V2.33155ZM11.6177 2.33155V-1.66845H8.80665L7.85429 0.97639L11.6177 2.33155ZM14.985 2.33155L18.6816 3.85977L20.967 -1.66845H14.985V2.33155ZM12.9459 7.26393V11.2639H15.6205L16.6424 8.79216L12.9459 7.26393ZM1.22996 8.43581V4.43581H-3.65441L-2.69155 9.22433L1.22996 8.43581ZM7.0477 8.43581L10.9692 9.22433L11.9321 4.43581H7.0477V8.43581ZM5.78613 7.26393V11.2639H11.7682L9.48268 5.73569L5.78613 7.26393ZM2.49152 7.26393L-1.20502 5.73568L-3.49054 11.2639H2.49152V7.26393ZM4.13883 3.2794L7.83538 1.75115L4.13883 -7.19012L0.44228 1.75115L4.13883 3.2794ZM15.8612 3.2794L19.5577 1.75115L15.8612 -7.19012L12.1646 1.75115L15.8612 3.2794ZM17.5085 7.26393V11.2639H23.4905L21.205 5.73569L17.5085 7.26393ZM14.2139 7.26393L10.5173 5.73569L8.2318 11.2639H14.2139V7.26393ZM12.9523 8.43581V4.43581H8.06793L9.0308 9.22433L12.9523 8.43581ZM18.77 8.43581L22.6915 9.22433L23.6544 4.43581H18.77V8.43581ZM19.4141 3.26393H18.7766V11.2639H19.4141V3.26393ZM22.4731 5.7357L20.4315 0.797298L13.0384 3.85377L15.08 8.79216L22.4731 5.7357ZM17.2743 6.289C19.5083 5.98499 21.2413 4.07734 21.2413 1.74561H13.2413C13.2413 0.00700431 14.5334 -1.41174 16.1956 -1.63794L17.2743 6.289ZM21.2413 1.74561C21.2413 -0.787122 19.1881 -2.84033 16.6554 -2.84033V5.15967C14.7698 5.15967 13.2413 3.63116 13.2413 1.74561H21.2413ZM16.6554 -2.84033H11.6177V5.15967H16.6554V-2.84033ZM15.3812 -0.195485C14.5889 -2.39586 12.4809 -3.98865 9.98559 -3.98865V4.01135C8.99163 4.01135 8.16497 3.37763 7.85429 2.51483L15.3812 -0.195485ZM9.98559 -3.98865C7.49022 -3.98865 5.38231 -2.39583 4.58997 -0.195555L12.1168 2.5149C11.8061 3.37768 10.9795 4.01135 9.98559 4.01135V-3.98865ZM8.3534 -2.84033H3.34465V5.15967H8.3534V-2.84033ZM3.34465 -2.84033C0.811916 -2.84033 -1.24129 -0.787122 -1.24129 1.74561H6.75871C6.75871 3.63116 5.23019 5.15967 3.34465 5.15967V-2.84033ZM-1.24129 1.74561C-1.24129 4.07758 0.492035 5.98499 2.72568 6.28899L3.80455 -1.63793C5.46648 -1.41173 6.75871 0.00676679 6.75871 1.74561H-1.24129ZM-0.431425 0.797272L-2.4731 5.73567L4.91998 8.79219L6.96166 3.85379L-0.431425 0.797272ZM1.22344 3.26393H0.585938V11.2639H1.22344V3.26393ZM0.585938 3.26393C-1.9468 3.26393 -4 5.31713 -4 7.84987H4C4 9.73541 2.47148 11.2639 0.585938 11.2639V3.26393ZM-4 7.84987C-4 12.3412 -0.352459 15.9887 4.13883 15.9887V7.9887C4.11514 7.9887 4.10112 7.98465 4.08983 7.97987C4.07582 7.97394 4.05865 7.96327 4.04204 7.94666C4.02542 7.93005 4.01476 7.91287 4.00882 7.89887C4.00404 7.88758 4 7.87355 4 7.84987H-4ZM4.13883 15.9887C8.63012 15.9887 12.2777 12.3412 12.2777 7.84987H4.27766C4.27766 7.87355 4.27362 7.88758 4.26883 7.89887C4.2629 7.91287 4.25223 7.93005 4.23562 7.94666C4.21901 7.96327 4.20183 7.97394 4.18783 7.97987C4.17654 7.98465 4.16251 7.9887 4.13883 7.9887V15.9887ZM12.2777 7.84987C12.2777 5.31713 10.2245 3.26393 7.69172 3.26393V11.2639C5.80617 11.2639 4.27766 9.73541 4.27766 7.84987H12.2777ZM7.69172 3.26393H7.05418V11.2639H7.69172V3.26393ZM10.7507 5.7357L8.71159 0.803321L1.31848 3.85977L3.35762 8.79216L10.7507 5.7357ZM5.01504 6.33155H8.3534V-1.66845H5.01504V6.33155ZM4.58995 3.68671C5.38229 5.88714 7.49024 7.47987 9.98559 7.47987V-0.520132C10.9795 -0.520132 11.8061 0.113537 12.1168 0.97639L4.58995 3.68671ZM9.98559 7.47987C12.4809 7.47987 14.5889 5.88709 15.3812 3.68671L7.85429 0.97639C8.16497 0.113587 8.99163 -0.520132 9.98559 -0.520132V7.47987ZM11.6177 6.33155H14.985V-1.66845H11.6177V6.33155ZM11.2884 0.803322L9.2493 5.7357L16.6424 8.79216L18.6816 3.85977L11.2884 0.803322ZM12.9459 3.26393H12.3083V11.2639H12.9459V3.26393ZM12.3083 3.26393C9.77559 3.26393 7.72238 5.31713 7.72238 7.84987H15.7224C15.7224 9.73541 14.1939 11.2639 12.3083 11.2639V3.26393ZM7.72238 7.84987C7.72238 12.3412 11.3699 15.9887 15.8612 15.9887V7.9887C15.8375 7.9887 15.8235 7.98465 15.8122 7.97987C15.7982 7.97394 15.781 7.96327 15.7644 7.94666C15.7478 7.93005 15.7371 7.91287 15.7312 7.89887C15.7264 7.88758 15.7224 7.87355 15.7224 7.84987H7.72238ZM15.8612 15.9887C20.3525 15.9887 24 12.3411 24 7.84987H16C16 7.87357 15.996 7.8876 15.9912 7.89889C15.9852 7.9129 15.9746 7.93007 15.958 7.94668C15.9414 7.96329 15.9242 7.97395 15.9102 7.97988C15.8989 7.98465 15.8849 7.9887 15.8612 7.9887V15.9887ZM24 7.84987C24 5.31713 21.9468 3.26393 19.4141 3.26393V11.2639C17.5285 11.2639 16 9.73541 16 7.84987H24ZM4.13883 6.81682C4.64856 6.81682 5.05659 7.17543 5.15147 7.64728L-2.69155 9.22433C-2.0512 12.4089 0.758084 14.8168 4.13883 14.8168V6.81682ZM1.22996 12.4358H7.0477V4.43581H1.22996V12.4358ZM3.12619 7.64728C3.22107 7.17543 3.6291 6.81682 4.13883 6.81682V14.8168C7.51957 14.8168 10.3289 12.4089 10.9692 9.22433L3.12619 7.64728ZM5.78613 3.26393H2.49152V11.2639H5.78613V3.26393ZM6.18807 8.79218L7.83538 4.80764L0.44228 1.75115L-1.20502 5.73568L6.18807 8.79218ZM0.44228 4.80764L2.08958 8.79218L9.48268 5.73569L7.83538 1.75115L0.44228 4.80764ZM9.98555 -1.69201C11.8846 -1.69201 13.4232 -0.153414 13.4232 1.74561H5.42316C5.42316 4.26487 7.46629 6.30799 9.98555 6.30799V-1.69201ZM13.4232 1.74561C13.4232 3.64463 11.8846 5.18323 9.98555 5.18323V-2.81677C7.46629 -2.81677 5.42316 -0.773643 5.42316 1.74561H13.4232ZM9.98555 5.18323C8.08667 5.18323 6.54793 3.64481 6.54793 1.74561H14.5479C14.5479 -0.773824 12.5046 -2.81677 9.98555 -2.81677V5.18323ZM6.54793 1.74561C6.54793 -0.153414 8.08653 -1.69201 9.98555 -1.69201V6.30799C12.5048 6.30799 14.5479 4.26487 14.5479 1.74561H6.54793ZM12.1646 4.80764L13.8119 8.79218L21.205 5.73569L19.5577 1.75115L12.1646 4.80764ZM17.5085 3.26393H14.2139V11.2639H17.5085V3.26393ZM17.9104 8.79218L19.5577 4.80764L12.1646 1.75115L10.5173 5.73569L17.9104 8.79218ZM15.8612 6.81682C16.3709 6.81682 16.7789 7.17543 16.8738 7.64728L9.0308 9.22433C9.67114 12.4089 12.4804 14.8168 15.8612 14.8168V6.81682ZM12.9523 12.4358H18.77V4.43581H12.9523V12.4358ZM14.8485 7.64728C14.9434 7.1754 15.3514 6.81682 15.8612 6.81682V14.8168C19.2418 14.8168 22.0512 12.4089 22.6915 9.22433L14.8485 7.64728Z" mask="url(#path-1-inside-1_1_15997)"/>
</symbol>
<symbol  viewBox="0 0 18 16" fill="none" xmlns="http://www.w3.org/2000/svg" id="favorites">
<path d="M16.9935 3.51496C16.7329 2.90541 16.357 2.35303 15.887 1.88876C15.4167 1.4231 14.8621 1.05305 14.2535 0.798733C13.6224 0.53397 12.9455 0.39845 12.2622 0.400038C11.3034 0.400038 10.3681 0.66518 9.55519 1.166C9.36072 1.28581 9.17598 1.4174 9.00096 1.56077C8.82594 1.4174 8.6412 1.28581 8.44673 1.166C7.63386 0.66518 6.69847 0.400038 5.73975 0.400038C5.0494 0.400038 4.38043 0.533591 3.74841 0.798733C3.13779 1.05405 2.58745 1.42132 2.11489 1.88876C1.64428 2.35251 1.26834 2.90501 1.00838 3.51496C0.73807 4.14934 0.599998 4.823 0.599998 5.51629C0.599998 6.17031 0.732236 6.85182 0.994766 7.54512C1.21451 8.1245 1.52955 8.72549 1.9321 9.33237C2.56995 10.2928 3.44699 11.2944 4.536 12.3098C6.34066 13.993 8.1278 15.1557 8.20365 15.2028L8.66453 15.5013C8.86872 15.6329 9.13125 15.6329 9.33544 15.5013L9.79633 15.2028C9.87217 15.1537 11.6574 13.993 13.464 12.3098C14.553 11.2944 15.43 10.2928 16.0679 9.33237C16.4704 8.72549 16.7874 8.1245 17.0052 7.54512C17.2677 6.85182 17.4 6.17031 17.4 5.51629C17.4019 4.823 17.2639 4.14934 16.9935 3.51496ZM9.00096 13.9478C9.00096 13.9478 2.07795 9.46789 2.07795 5.51629C2.07795 3.51496 3.7173 1.89269 5.73975 1.89269C7.1613 1.89269 8.39422 2.69401 9.00096 3.86456C9.6077 2.69401 10.8406 1.89269 12.2622 1.89269C14.2846 1.89269 15.924 3.51496 15.924 5.51629C15.924 9.46789 9.00096 13.9478 9.00096 13.9478Z" fill="#282739"/>
</symbol>
<symbol  viewBox="0 0 20 18" fill="none" xmlns="http://www.w3.org/2000/svg" id="basket">
<path d="M19.1523 6.25427H15.0031L12.6756 0.924855C12.5461 0.628332 12.2007 0.492824 11.9042 0.622395C11.6076 0.751887 11.4722 1.09732 11.6017 1.39388L13.7244 6.25431H6.27561L8.39827 1.39388C8.52776 1.09732 8.39237 0.751926 8.09581 0.622395C7.79929 0.492824 7.45382 0.628254 7.32436 0.924855L4.99686 6.25427H0.847685C0.304911 6.25427 -0.0979012 6.74564 0.0208488 7.26286L2.20581 16.7797C2.29257 17.1576 2.63608 17.4261 3.03265 17.4261H16.9673C17.3639 17.4261 17.7074 17.1576 17.7942 16.7797L19.9791 7.26286C20.0979 6.74568 19.695 6.25427 19.1523 6.25427ZM5.1071 8.0513C5.02882 8.0513 4.94925 8.03552 4.87288 8.00216C4.57632 7.87267 4.44089 7.52728 4.57042 7.23068L5.01057 6.22278H6.28933L5.64432 7.69966C5.54819 7.91993 5.33296 8.0513 5.1071 8.0513ZM7.0703 14.3011C7.0703 14.6247 6.80796 14.8871 6.48436 14.8871C6.16077 14.8871 5.89843 14.6247 5.89843 14.3011V10.0043C5.89843 9.68068 6.16077 9.41833 6.48436 9.41833C6.80796 9.41833 7.0703 9.68068 7.0703 10.0043V14.3011ZM10.5859 14.3011C10.5859 14.6247 10.3236 14.8871 9.99999 14.8871C9.6764 14.8871 9.41405 14.6247 9.41405 14.3011V10.0043C9.41405 9.68068 9.6764 9.41833 9.99999 9.41833C10.3236 9.41833 10.5859 9.68068 10.5859 10.0043V14.3011ZM14.1016 14.3011C14.1016 14.6247 13.8392 14.8871 13.5156 14.8871C13.192 14.8871 12.9297 14.6247 12.9297 14.3011V10.0043C12.9297 9.68068 13.192 9.41833 13.5156 9.41833C13.8392 9.41833 14.1016 9.68068 14.1016 10.0043V14.3011ZM15.1271 8.00216C15.0507 8.03552 14.9712 8.0513 14.8929 8.0513C14.667 8.0513 14.4518 7.91997 14.3556 7.6997L13.7106 6.22282H14.9894L15.4295 7.23071C15.5591 7.52728 15.4236 7.87267 15.1271 8.00216Z" fill="#6F73EE"/>
</symbol>
<symbol viewBox="0 0 13 15" fill="none" xmlns="http://www.w3.org/2000/svg" id="marker">
<path d="M10.9468 1.84193C9.75908 0.654143 8.1798 0 6.50008 0C4.82034 0 3.24111 0.654114 2.05327 1.84193C0.865508 3.02969 0.211365 4.60886 0.211365 6.2886C0.211365 7.96834 0.865508 9.54757 2.05327 10.7354L6.18936 14.8713C6.27517 14.9571 6.38764 15 6.50008 15C6.61255 15 6.72502 14.9571 6.8108 14.8713L10.9467 10.7354C12.1345 9.5476 12.7887 7.96837 12.7887 6.28863C12.7887 4.60883 12.1346 3.02966 10.9468 1.84193ZM8.47505 8.26351C7.94753 8.79103 7.24616 9.08157 6.50011 9.08157C5.75406 9.08157 5.05269 8.79106 4.5252 8.26354C3.99765 7.73602 3.70714 7.03465 3.70714 6.2886C3.70714 5.54258 3.99765 4.84121 4.5252 4.31366C5.05269 3.78614 5.75406 3.49563 6.50011 3.49563C7.24616 3.49563 7.94753 3.78614 8.47505 4.31366C9.00257 4.84115 9.29311 5.54252 9.29311 6.28857C9.29308 7.03462 9.00254 7.73602 8.47505 8.26351Z" fill="white"/>
</symbol>
<symbol viewBox="0 0 16 16" fill="none" xmlns="http://www.w3.org/2000/svg" id="scooter">
<path d="M12.9407 10.8467L10.3157 1.86234L12.0813 1.67171C12.4469 1.63109 12.7125 1.30296 12.6719 0.937337C12.6313 0.571712 12.3063 0.302962 11.9375 0.346712L6.84067 0.896712C6.47505 0.937337 6.20942 1.26546 6.25005 1.63109C6.28755 1.97171 6.57505 2.22484 6.91255 2.22484C6.93755 2.22484 6.95942 2.22484 6.98442 2.22171L8.97192 2.00921L11.6469 11.1842C11.1188 11.4936 10.7219 11.9936 10.5469 12.5873H5.45317C5.15942 11.5842 4.22505 10.8467 3.11255 10.8467C1.76567 10.8467 0.675049 11.9248 0.675049 13.253C0.675049 14.5811 1.76567 15.6592 3.11255 15.6592C4.22505 15.6592 5.15942 14.9248 5.45317 13.9186H10.5438C10.8375 14.9217 11.7719 15.6592 12.8844 15.6592C14.2313 15.6592 15.3219 14.5811 15.3219 13.253C15.3219 11.9405 14.2625 10.8748 12.9407 10.8467Z" fill="white"/>
</symbol>
<symbol viewBox="0 0 10 16" fill="none" xmlns="http://www.w3.org/2000/svg" id="energy">
<path d="M9.19978 0H3.19959L0.800354 8.63849H3.20448L1.16032 16H1.88044L8.83926 7.36114H5.31397L9.19978 0Z" fill="white"/>
</symbol>
<symbol viewBox="0 0 10 8" fill="none" xmlns="http://www.w3.org/2000/svg" id="check">
<path d="M9.01678 0.583984H8.00916C7.79002 0.583984 7.58162 0.689258 7.45271 0.869726L4.07536 5.55332L2.54566 3.43066C2.41676 3.25234 2.21051 3.14492 1.98922 3.14492H0.981596C0.841947 3.14492 0.760306 3.30391 0.841947 3.41777L3.51891 7.13027C3.58215 7.21854 3.66552 7.29046 3.7621 7.34007C3.85868 7.38969 3.9657 7.41557 4.07428 7.41557C4.18286 7.41557 4.28988 7.38969 4.38647 7.34007C4.48305 7.29046 4.56642 7.21854 4.62966 7.13027L9.15428 0.856836C9.23807 0.742969 9.15643 0.583984 9.01678 0.583984Z" fill="#6F73EE"/>
</symbol>




</svg>