<svg width="0" height="0" class="hidden">
  <symbol fill="none" xmlns="http://www.w3.org/2000/svg" viewBox="0 0 12 11" id="telegram">
    <path d="M4.70847 7.09058L4.50997 9.88258C4.79397 9.88258 4.91697 9.76058 5.06447 9.61408L6.39597 8.34158L9.15497 10.3621C9.66097 10.6441 10.0175 10.4956 10.154 9.89658L11.965 1.41058L11.9655 1.41008C12.126 0.662081 11.695 0.369581 11.202 0.553081L0.556967 4.62858C-0.169533 4.91058 -0.158533 5.31558 0.433467 5.49908L3.15497 6.34558L9.47647 2.39008C9.77397 2.19308 10.0445 2.30208 9.82197 2.49908L4.70847 7.09058Z" fill="#5D6C7B"></path>
  </symbol>
  <symbol fill="none" xmlns="http://www.w3.org/2000/svg" viewBox="0 0 12 13" id="viber">
    <path d="M11.4957 4.73541C11.4957 3.60831 11.0541 2.54593 10.2519 1.74384C9.4498 0.941742 8.38742 0.5 7.26041 0.5H4.75085C4.75085 0.5 4.75085 0.5 4.75076 0.5C3.62384 0.5 2.56146 0.941742 1.75946 1.74374C0.957367 2.54584 0.515625 3.60831 0.515625 4.73532V6.70792C0.515625 7.58069 0.78186 8.42032 1.28558 9.13599C1.72998 9.76733 2.32764 10.2604 3.02444 10.5732V11.7062C3.02444 12.2921 3.35248 12.4999 3.63336 12.5C3.83405 12.5 4.03482 12.4009 4.23019 12.2057L5.49243 10.9432H7.2605C8.38751 10.9432 9.44989 10.5015 10.252 9.6994C11.0541 8.89731 11.4958 7.83493 11.4958 6.70792L11.4957 4.73541ZM8.27197 8.07864L7.33997 9.01056C7.09644 9.25409 6.77179 9.38803 6.42572 9.38803C6.07965 9.38803 5.755 9.254 5.51147 9.01056L2.58252 6.08151C2.07852 5.57733 2.07852 4.75711 2.58252 4.25302L3.51453 3.32111C3.58044 3.2551 3.6698 3.21811 3.76309 3.21811C3.85629 3.21811 3.94574 3.2551 4.01166 3.32111L5.34302 4.65247C5.40894 4.71838 5.44592 4.80783 5.44592 4.90103C5.44592 4.99423 5.40894 5.08368 5.34293 5.1496L5.05902 5.4335L6.15948 6.53397L6.44348 6.24997C6.58081 6.11273 6.80338 6.11273 6.94061 6.25006L8.27197 7.58142C8.33798 7.64734 8.37497 7.73679 8.37497 7.82999C8.37497 7.92328 8.33798 8.01273 8.27197 8.07864ZM5.73944 3.91299C5.73944 3.7189 5.89682 3.56143 6.091 3.56143C7.30911 3.56143 8.30017 4.5524 8.30017 5.77042C8.30017 5.9646 8.14279 6.12198 7.94861 6.12198C7.75452 6.12198 7.59705 5.9646 7.59705 5.77042C7.59705 4.94012 6.92148 4.26456 6.091 4.26456C5.89682 4.26456 5.73944 4.10718 5.73944 3.91299ZM9.45474 6.12216C9.26056 6.12216 9.10318 5.96469 9.10318 5.7706C9.10327 4.96594 8.78989 4.20953 8.22098 3.64053C7.65198 3.07162 6.89557 2.75824 6.09091 2.75824C5.89682 2.75824 5.73935 2.60086 5.73935 2.40668C5.73935 2.21259 5.89682 2.05511 6.09091 2.05511C7.08334 2.05511 8.01636 2.44165 8.71811 3.1434C9.41995 3.84515 9.8064 4.77817 9.8063 5.7706C9.8063 5.96469 9.64893 6.12216 9.45474 6.12216Z" fill="#5D6C7B"></path>
  </symbol>
  <symbol fill="none" xmlns="http://www.w3.org/2000/svg" viewBox="0 0 13 13" id="whatsup">
    <path d="M6.49685 0.503787C3.18509 0.50449 0.500956 3.18978 0.501659 6.50153C0.501893 7.64828 0.830971 8.7709 1.44982 9.73633L0.516884 12.1569C0.467202 12.2856 0.531289 12.4303 0.660026 12.48C0.688813 12.4911 0.719381 12.4968 0.75023 12.4967C0.778854 12.4969 0.807267 12.492 0.834181 12.4822L3.33271 11.5902C6.14383 13.341 9.842 12.4815 11.5928 9.67033C13.3436 6.85918 12.484 3.16104 9.67286 1.41026C8.71994 0.81675 7.61952 0.502686 6.49685 0.503787Z" fill="#5D6C7B"></path>
  </symbol>
  <symbol fill="none" xmlns="http://www.w3.org/2000/svg" viewBox="0 0 50 50" id ="magnifier">
    <path d="M 21 3 C 11.601563 3 4 10.601563 4 20 C 4 29.398438 11.601563 37 21 37 C 24.355469 37 27.460938 36.015625 30.09375 34.34375 L 42.375 46.625 L 46.625 42.375 L 34.5 30.28125 C 36.679688 27.421875 38 23.878906 38 20 C 38 10.601563 30.398438 3 21 3 Z M 21 7 C 28.199219 7 34 12.800781 34 20 C 34 27.199219 28.199219 33 21 33 C 13.800781 33 8 27.199219 8 20 C 8 12.800781 13.800781 7 21 7 Z" fill="white"></path>
  </symbol>
<symbol viewBox="0 0 20 12" fill="none" xmlns="http://www.w3.org/2000/svg" id="balance">
<mask id="path-1-inside-1_1_15997" fill="white">
<path d="M19.4141 7.26393H18.7766L16.7349 2.32553C17.0208 2.28663 17.2413 2.04217 17.2413 1.74561C17.2413 1.42202 16.979 1.15967 16.6554 1.15967H11.6177C11.3769 0.490884 10.7363 0.0113525 9.98559 0.0113525C9.23488 0.0113525 8.59422 0.490923 8.3534 1.15967H3.34465C3.02105 1.15967 2.75871 1.42202 2.75871 1.74561C2.75871 2.04217 2.97926 2.28663 3.26512 2.32553L1.22344 7.26393H0.585938C0.262344 7.26393 0 7.52627 0 7.84987C0 10.132 1.85668 11.9887 4.13883 11.9887C6.42098 11.9887 8.27766 10.132 8.27766 7.84987C8.27766 7.52627 8.01531 7.26393 7.69172 7.26393H7.05418L5.01504 2.33155H8.3534C8.59422 3.00034 9.23484 3.47987 9.98559 3.47987C10.7363 3.47987 11.3769 3.00034 11.6177 2.33155H14.985L12.9459 7.26393H12.3083C11.9847 7.26393 11.7224 7.52627 11.7224 7.84987C11.7224 10.132 13.5791 11.9887 15.8612 11.9887C18.1434 11.9887 20 10.132 20 7.84987C20 7.52627 19.7377 7.26393 19.4141 7.26393ZM4.13883 10.8168C2.70332 10.8168 1.5027 9.79217 1.22996 8.43581H7.0477C6.77496 9.79217 5.57434 10.8168 4.13883 10.8168ZM5.78613 7.26393H2.49152L4.13883 3.2794L5.78613 7.26393ZM9.98555 2.30799C9.67543 2.30799 9.42316 2.05573 9.42316 1.74561C9.42316 1.43549 9.67543 1.18323 9.98555 1.18323C10.2956 1.18323 10.5479 1.43549 10.5479 1.74561C10.5479 2.05573 10.2957 2.30799 9.98555 2.30799ZM15.8612 3.2794L17.5085 7.26393H14.2139L15.8612 3.2794ZM15.8612 10.8168C14.4257 10.8168 13.225 9.79217 12.9523 8.43581H18.77C18.4973 9.79217 17.2966 10.8168 15.8612 10.8168Z"/>
</mask>
<path d="M19.4141 7.26393H18.7766L16.7349 2.32553C17.0208 2.28663 17.2413 2.04217 17.2413 1.74561C17.2413 1.42202 16.979 1.15967 16.6554 1.15967H11.6177C11.3769 0.490884 10.7363 0.0113525 9.98559 0.0113525C9.23488 0.0113525 8.59422 0.490923 8.3534 1.15967H3.34465C3.02105 1.15967 2.75871 1.42202 2.75871 1.74561C2.75871 2.04217 2.97926 2.28663 3.26512 2.32553L1.22344 7.26393H0.585938C0.262344 7.26393 0 7.52627 0 7.84987C0 10.132 1.85668 11.9887 4.13883 11.9887C6.42098 11.9887 8.27766 10.132 8.27766 7.84987C8.27766 7.52627 8.01531 7.26393 7.69172 7.26393H7.05418L5.01504 2.33155H8.3534C8.59422 3.00034 9.23484 3.47987 9.98559 3.47987C10.7363 3.47987 11.3769 3.00034 11.6177 2.33155H14.985L12.9459 7.26393H12.3083C11.9847 7.26393 11.7224 7.52627 11.7224 7.84987C11.7224 10.132 13.5791 11.9887 15.8612 11.9887C18.1434 11.9887 20 10.132 20 7.84987C20 7.52627 19.7377 7.26393 19.4141 7.26393ZM4.13883 10.8168C2.70332 10.8168 1.5027 9.79217 1.22996 8.43581H7.0477C6.77496 9.79217 5.57434 10.8168 4.13883 10.8168ZM5.78613 7.26393H2.49152L4.13883 3.2794L5.78613 7.26393ZM9.98555 2.30799C9.67543 2.30799 9.42316 2.05573 9.42316 1.74561C9.42316 1.43549 9.67543 1.18323 9.98555 1.18323C10.2956 1.18323 10.5479 1.43549 10.5479 1.74561C10.5479 2.05573 10.2957 2.30799 9.98555 2.30799ZM15.8612 3.2794L17.5085 7.26393H14.2139L15.8612 3.2794ZM15.8612 10.8168C14.4257 10.8168 13.225 9.79217 12.9523 8.43581H18.77C18.4973 9.79217 17.2966 10.8168 15.8612 10.8168Z" fill="#282739"/>
<path d="M18.7766 7.26393L15.08 8.79216L16.1019 11.2639H18.7766V7.26393ZM16.7349 2.32553L16.1956 -1.63794L11.0571 -0.938671L13.0384 3.85377L16.7349 2.32553ZM11.6177 1.15967L7.85429 2.51483L8.80665 5.15967H11.6177V1.15967ZM8.3534 1.15967V5.15967H11.1644L12.1168 2.5149L8.3534 1.15967ZM3.26512 2.32553L6.96166 3.85379L8.94296 -0.938575L3.80455 -1.63793L3.26512 2.32553ZM1.22344 7.26393V11.2639H3.89809L4.91998 8.79219L1.22344 7.26393ZM7.05418 7.26393L3.35762 8.79216L4.3795 11.2639H7.05418V7.26393ZM5.01504 2.33155V-1.66845H-0.966991L1.31848 3.85977L5.01504 2.33155ZM8.3534 2.33155L12.1168 0.97639L11.1645 -1.66845H8.3534V2.33155ZM11.6177 2.33155V-1.66845H8.80665L7.85429 0.97639L11.6177 2.33155ZM14.985 2.33155L18.6816 3.85977L20.967 -1.66845H14.985V2.33155ZM12.9459 7.26393V11.2639H15.6205L16.6424 8.79216L12.9459 7.26393ZM1.22996 8.43581V4.43581H-3.65441L-2.69155 9.22433L1.22996 8.43581ZM7.0477 8.43581L10.9692 9.22433L11.9321 4.43581H7.0477V8.43581ZM5.78613 7.26393V11.2639H11.7682L9.48268 5.73569L5.78613 7.26393ZM2.49152 7.26393L-1.20502 5.73568L-3.49054 11.2639H2.49152V7.26393ZM4.13883 3.2794L7.83538 1.75115L4.13883 -7.19012L0.44228 1.75115L4.13883 3.2794ZM15.8612 3.2794L19.5577 1.75115L15.8612 -7.19012L12.1646 1.75115L15.8612 3.2794ZM17.5085 7.26393V11.2639H23.4905L21.205 5.73569L17.5085 7.26393ZM14.2139 7.26393L10.5173 5.73569L8.2318 11.2639H14.2139V7.26393ZM12.9523 8.43581V4.43581H8.06793L9.0308 9.22433L12.9523 8.43581ZM18.77 8.43581L22.6915 9.22433L23.6544 4.43581H18.77V8.43581ZM19.4141 3.26393H18.7766V11.2639H19.4141V3.26393ZM22.4731 5.7357L20.4315 0.797298L13.0384 3.85377L15.08 8.79216L22.4731 5.7357ZM17.2743 6.289C19.5083 5.98499 21.2413 4.07734 21.2413 1.74561H13.2413C13.2413 0.00700431 14.5334 -1.41174 16.1956 -1.63794L17.2743 6.289ZM21.2413 1.74561C21.2413 -0.787122 19.1881 -2.84033 16.6554 -2.84033V5.15967C14.7698 5.15967 13.2413 3.63116 13.2413 1.74561H21.2413ZM16.6554 -2.84033H11.6177V5.15967H16.6554V-2.84033ZM15.3812 -0.195485C14.5889 -2.39586 12.4809 -3.98865 9.98559 -3.98865V4.01135C8.99163 4.01135 8.16497 3.37763 7.85429 2.51483L15.3812 -0.195485ZM9.98559 -3.98865C7.49022 -3.98865 5.38231 -2.39583 4.58997 -0.195555L12.1168 2.5149C11.8061 3.37768 10.9795 4.01135 9.98559 4.01135V-3.98865ZM8.3534 -2.84033H3.34465V5.15967H8.3534V-2.84033ZM3.34465 -2.84033C0.811916 -2.84033 -1.24129 -0.787122 -1.24129 1.74561H6.75871C6.75871 3.63116 5.23019 5.15967 3.34465 5.15967V-2.84033ZM-1.24129 1.74561C-1.24129 4.07758 0.492035 5.98499 2.72568 6.28899L3.80455 -1.63793C5.46648 -1.41173 6.75871 0.00676679 6.75871 1.74561H-1.24129ZM-0.431425 0.797272L-2.4731 5.73567L4.91998 8.79219L6.96166 3.85379L-0.431425 0.797272ZM1.22344 3.26393H0.585938V11.2639H1.22344V3.26393ZM0.585938 3.26393C-1.9468 3.26393 -4 5.31713 -4 7.84987H4C4 9.73541 2.47148 11.2639 0.585938 11.2639V3.26393ZM-4 7.84987C-4 12.3412 -0.352459 15.9887 4.13883 15.9887V7.9887C4.11514 7.9887 4.10112 7.98465 4.08983 7.97987C4.07582 7.97394 4.05865 7.96327 4.04204 7.94666C4.02542 7.93005 4.01476 7.91287 4.00882 7.89887C4.00404 7.88758 4 7.87355 4 7.84987H-4ZM4.13883 15.9887C8.63012 15.9887 12.2777 12.3412 12.2777 7.84987H4.27766C4.27766 7.87355 4.27362 7.88758 4.26883 7.89887C4.2629 7.91287 4.25223 7.93005 4.23562 7.94666C4.21901 7.96327 4.20183 7.97394 4.18783 7.97987C4.17654 7.98465 4.16251 7.9887 4.13883 7.9887V15.9887ZM12.2777 7.84987C12.2777 5.31713 10.2245 3.26393 7.69172 3.26393V11.2639C5.80617 11.2639 4.27766 9.73541 4.27766 7.84987H12.2777ZM7.69172 3.26393H7.05418V11.2639H7.69172V3.26393ZM10.7507 5.7357L8.71159 0.803321L1.31848 3.85977L3.35762 8.79216L10.7507 5.7357ZM5.01504 6.33155H8.3534V-1.66845H5.01504V6.33155ZM4.58995 3.68671C5.38229 5.88714 7.49024 7.47987 9.98559 7.47987V-0.520132C10.9795 -0.520132 11.8061 0.113537 12.1168 0.97639L4.58995 3.68671ZM9.98559 7.47987C12.4809 7.47987 14.5889 5.88709 15.3812 3.68671L7.85429 0.97639C8.16497 0.113587 8.99163 -0.520132 9.98559 -0.520132V7.47987ZM11.6177 6.33155H14.985V-1.66845H11.6177V6.33155ZM11.2884 0.803322L9.2493 5.7357L16.6424 8.79216L18.6816 3.85977L11.2884 0.803322ZM12.9459 3.26393H12.3083V11.2639H12.9459V3.26393ZM12.3083 3.26393C9.77559 3.26393 7.72238 5.31713 7.72238 7.84987H15.7224C15.7224 9.73541 14.1939 11.2639 12.3083 11.2639V3.26393ZM7.72238 7.84987C7.72238 12.3412 11.3699 15.9887 15.8612 15.9887V7.9887C15.8375 7.9887 15.8235 7.98465 15.8122 7.97987C15.7982 7.97394 15.781 7.96327 15.7644 7.94666C15.7478 7.93005 15.7371 7.91287 15.7312 7.89887C15.7264 7.88758 15.7224 7.87355 15.7224 7.84987H7.72238ZM15.8612 15.9887C20.3525 15.9887 24 12.3411 24 7.84987H16C16 7.87357 15.996 7.8876 15.9912 7.89889C15.9852 7.9129 15.9746 7.93007 15.958 7.94668C15.9414 7.96329 15.9242 7.97395 15.9102 7.97988C15.8989 7.98465 15.8849 7.9887 15.8612 7.9887V15.9887ZM24 7.84987C24 5.31713 21.9468 3.26393 19.4141 3.26393V11.2639C17.5285 11.2639 16 9.73541 16 7.84987H24ZM4.13883 6.81682C4.64856 6.81682 5.05659 7.17543 5.15147 7.64728L-2.69155 9.22433C-2.0512 12.4089 0.758084 14.8168 4.13883 14.8168V6.81682ZM1.22996 12.4358H7.0477V4.43581H1.22996V12.4358ZM3.12619 7.64728C3.22107 7.17543 3.6291 6.81682 4.13883 6.81682V14.8168C7.51957 14.8168 10.3289 12.4089 10.9692 9.22433L3.12619 7.64728ZM5.78613 3.26393H2.49152V11.2639H5.78613V3.26393ZM6.18807 8.79218L7.83538 4.80764L0.44228 1.75115L-1.20502 5.73568L6.18807 8.79218ZM0.44228 4.80764L2.08958 8.79218L9.48268 5.73569L7.83538 1.75115L0.44228 4.80764ZM9.98555 -1.69201C11.8846 -1.69201 13.4232 -0.153414 13.4232 1.74561H5.42316C5.42316 4.26487 7.46629 6.30799 9.98555 6.30799V-1.69201ZM13.4232 1.74561C13.4232 3.64463 11.8846 5.18323 9.98555 5.18323V-2.81677C7.46629 -2.81677 5.42316 -0.773643 5.42316 1.74561H13.4232ZM9.98555 5.18323C8.08667 5.18323 6.54793 3.64481 6.54793 1.74561H14.5479C14.5479 -0.773824 12.5046 -2.81677 9.98555 -2.81677V5.18323ZM6.54793 1.74561C6.54793 -0.153414 8.08653 -1.69201 9.98555 -1.69201V6.30799C12.5048 6.30799 14.5479 4.26487 14.5479 1.74561H6.54793ZM12.1646 4.80764L13.8119 8.79218L21.205 5.73569L19.5577 1.75115L12.1646 4.80764ZM17.5085 3.26393H14.2139V11.2639H17.5085V3.26393ZM17.9104 8.79218L19.5577 4.80764L12.1646 1.75115L10.5173 5.73569L17.9104 8.79218ZM15.8612 6.81682C16.3709 6.81682 16.7789 7.17543 16.8738 7.64728L9.0308 9.22433C9.67114 12.4089 12.4804 14.8168 15.8612 14.8168V6.81682ZM12.9523 12.4358H18.77V4.43581H12.9523V12.4358ZM14.8485 7.64728C14.9434 7.1754 15.3514 6.81682 15.8612 6.81682V14.8168C19.2418 14.8168 22.0512 12.4089 22.6915 9.22433L14.8485 7.64728Z" mask="url(#path-1-inside-1_1_15997)"/>
</symbol>
<symbol  viewBox="0 0 18 16" xmlns="http://www.w3.org/2000/svg" id="favorites">
<path d="M16.9935 3.51496C16.7329 2.90541 16.357 2.35303 15.887 1.88876C15.4167 1.4231 14.8621 1.05305 14.2535 0.798733C13.6224 0.53397 12.9455 0.39845 12.2622 0.400038C11.3034 0.400038 10.3681 0.66518 9.55519 1.166C9.36072 1.28581 9.17598 1.4174 9.00096 1.56077C8.82594 1.4174 8.6412 1.28581 8.44673 1.166C7.63386 0.66518 6.69847 0.400038 5.73975 0.400038C5.0494 0.400038 4.38043 0.533591 3.74841 0.798733C3.13779 1.05405 2.58745 1.42132 2.11489 1.88876C1.64428 2.35251 1.26834 2.90501 1.00838 3.51496C0.73807 4.14934 0.599998 4.823 0.599998 5.51629C0.599998 6.17031 0.732236 6.85182 0.994766 7.54512C1.21451 8.1245 1.52955 8.72549 1.9321 9.33237C2.56995 10.2928 3.44699 11.2944 4.536 12.3098C6.34066 13.993 8.1278 15.1557 8.20365 15.2028L8.66453 15.5013C8.86872 15.6329 9.13125 15.6329 9.33544 15.5013L9.79633 15.2028C9.87217 15.1537 11.6574 13.993 13.464 12.3098C14.553 11.2944 15.43 10.2928 16.0679 9.33237C16.4704 8.72549 16.7874 8.1245 17.0052 7.54512C17.2677 6.85182 17.4 6.17031 17.4 5.51629C17.4019 4.823 17.2639 4.14934 16.9935 3.51496ZM9.00096 13.9478C9.00096 13.9478 2.07795 9.46789 2.07795 5.51629C2.07795 3.51496 3.7173 1.89269 5.73975 1.89269C7.1613 1.89269 8.39422 2.69401 9.00096 3.86456C9.6077 2.69401 10.8406 1.89269 12.2622 1.89269C14.2846 1.89269 15.924 3.51496 15.924 5.51629C15.924 9.46789 9.00096 13.9478 9.00096 13.9478Z"/>
</symbol>
<symbol  viewBox="0 0 20 18" fill="none" xmlns="http://www.w3.org/2000/svg" id="basket">
<path d="M19.1523 6.25427H15.0031L12.6756 0.924855C12.5461 0.628332 12.2007 0.492824 11.9042 0.622395C11.6076 0.751887 11.4722 1.09732 11.6017 1.39388L13.7244 6.25431H6.27561L8.39827 1.39388C8.52776 1.09732 8.39237 0.751926 8.09581 0.622395C7.79929 0.492824 7.45382 0.628254 7.32436 0.924855L4.99686 6.25427H0.847685C0.304911 6.25427 -0.0979012 6.74564 0.0208488 7.26286L2.20581 16.7797C2.29257 17.1576 2.63608 17.4261 3.03265 17.4261H16.9673C17.3639 17.4261 17.7074 17.1576 17.7942 16.7797L19.9791 7.26286C20.0979 6.74568 19.695 6.25427 19.1523 6.25427ZM5.1071 8.0513C5.02882 8.0513 4.94925 8.03552 4.87288 8.00216C4.57632 7.87267 4.44089 7.52728 4.57042 7.23068L5.01057 6.22278H6.28933L5.64432 7.69966C5.54819 7.91993 5.33296 8.0513 5.1071 8.0513ZM7.0703 14.3011C7.0703 14.6247 6.80796 14.8871 6.48436 14.8871C6.16077 14.8871 5.89843 14.6247 5.89843 14.3011V10.0043C5.89843 9.68068 6.16077 9.41833 6.48436 9.41833C6.80796 9.41833 7.0703 9.68068 7.0703 10.0043V14.3011ZM10.5859 14.3011C10.5859 14.6247 10.3236 14.8871 9.99999 14.8871C9.6764 14.8871 9.41405 14.6247 9.41405 14.3011V10.0043C9.41405 9.68068 9.6764 9.41833 9.99999 9.41833C10.3236 9.41833 10.5859 9.68068 10.5859 10.0043V14.3011ZM14.1016 14.3011C14.1016 14.6247 13.8392 14.8871 13.5156 14.8871C13.192 14.8871 12.9297 14.6247 12.9297 14.3011V10.0043C12.9297 9.68068 13.192 9.41833 13.5156 9.41833C13.8392 9.41833 14.1016 9.68068 14.1016 10.0043V14.3011ZM15.1271 8.00216C15.0507 8.03552 14.9712 8.0513 14.8929 8.0513C14.667 8.0513 14.4518 7.91997 14.3556 7.6997L13.7106 6.22282H14.9894L15.4295 7.23071C15.5591 7.52728 15.4236 7.87267 15.1271 8.00216Z" fill="#6F73EE"/>
</symbol>
<symbol viewBox="0 0 13 15" fill="none" xmlns="http://www.w3.org/2000/svg" id="marker">
<path d="M10.9468 1.84193C9.75908 0.654143 8.1798 0 6.50008 0C4.82034 0 3.24111 0.654114 2.05327 1.84193C0.865508 3.02969 0.211365 4.60886 0.211365 6.2886C0.211365 7.96834 0.865508 9.54757 2.05327 10.7354L6.18936 14.8713C6.27517 14.9571 6.38764 15 6.50008 15C6.61255 15 6.72502 14.9571 6.8108 14.8713L10.9467 10.7354C12.1345 9.5476 12.7887 7.96837 12.7887 6.28863C12.7887 4.60883 12.1346 3.02966 10.9468 1.84193ZM8.47505 8.26351C7.94753 8.79103 7.24616 9.08157 6.50011 9.08157C5.75406 9.08157 5.05269 8.79106 4.5252 8.26354C3.99765 7.73602 3.70714 7.03465 3.70714 6.2886C3.70714 5.54258 3.99765 4.84121 4.5252 4.31366C5.05269 3.78614 5.75406 3.49563 6.50011 3.49563C7.24616 3.49563 7.94753 3.78614 8.47505 4.31366C9.00257 4.84115 9.29311 5.54252 9.29311 6.28857C9.29308 7.03462 9.00254 7.73602 8.47505 8.26351Z" fill="white"/>
</symbol>
<symbol viewBox="0 0 16 16" fill="none" xmlns="http://www.w3.org/2000/svg" id="scooter">
<path d="M12.9407 10.8467L10.3157 1.86234L12.0813 1.67171C12.4469 1.63109 12.7125 1.30296 12.6719 0.937337C12.6313 0.571712 12.3063 0.302962 11.9375 0.346712L6.84067 0.896712C6.47505 0.937337 6.20942 1.26546 6.25005 1.63109C6.28755 1.97171 6.57505 2.22484 6.91255 2.22484C6.93755 2.22484 6.95942 2.22484 6.98442 2.22171L8.97192 2.00921L11.6469 11.1842C11.1188 11.4936 10.7219 11.9936 10.5469 12.5873H5.45317C5.15942 11.5842 4.22505 10.8467 3.11255 10.8467C1.76567 10.8467 0.675049 11.9248 0.675049 13.253C0.675049 14.5811 1.76567 15.6592 3.11255 15.6592C4.22505 15.6592 5.15942 14.9248 5.45317 13.9186H10.5438C10.8375 14.9217 11.7719 15.6592 12.8844 15.6592C14.2313 15.6592 15.3219 14.5811 15.3219 13.253C15.3219 11.9405 14.2625 10.8748 12.9407 10.8467Z" fill="white"/>
</symbol>
<symbol viewBox="0 0 10 16" fill="none" xmlns="http://www.w3.org/2000/svg" id="energy">
<path d="M9.19978 0H3.19959L0.800354 8.63849H3.20448L1.16032 16H1.88044L8.83926 7.36114H5.31397L9.19978 0Z" fill="white"/>
</symbol>
<symbol viewBox="0 0 10 8" fill="none" xmlns="http://www.w3.org/2000/svg" id="check">
<path d="M9.01678 0.583984H8.00916C7.79002 0.583984 7.58162 0.689258 7.45271 0.869726L4.07536 5.55332L2.54566 3.43066C2.41676 3.25234 2.21051 3.14492 1.98922 3.14492H0.981596C0.841947 3.14492 0.760306 3.30391 0.841947 3.41777L3.51891 7.13027C3.58215 7.21854 3.66552 7.29046 3.7621 7.34007C3.85868 7.38969 3.9657 7.41557 4.07428 7.41557C4.18286 7.41557 4.28988 7.38969 4.38647 7.34007C4.48305 7.29046 4.56642 7.21854 4.62966 7.13027L9.15428 0.856836C9.23807 0.742969 9.15643 0.583984 9.01678 0.583984Z" fill="#6F73EE"/>
</symbol>
<symbol viewBox="0 0 18 14" fill="none" xmlns="http://www.w3.org/2000/svg" id="batary">
<path d="M16.5 1.75001V0.999988C16.5 0.586551 16.1638 0.25 15.75 0.25H13.5C13.0862 0.25 12.75 0.586551 12.75 0.999988V1.74998H12.5303L12.2198 1.43944C11.9407 1.16002 11.554 0.999988 11.1592 0.999988H6.84081C6.44604 0.999988 6.05932 1.16002 5.78025 1.43944L5.46971 1.74998H5.24999V0.999988C5.24999 0.586551 4.91382 0.25 4.5 0.25H2.25C1.83618 0.25 1.50001 0.586551 1.50001 0.999988V1.74998C0.673102 1.75001 0 2.42273 0 3.24999V12.25C0 13.0773 0.673102 13.75 1.50001 13.75H16.5C17.3269 13.75 18 13.0773 18 12.25V3.24999C18 2.42273 17.3269 1.75001 16.5 1.75001ZM4.12499 5.49999H2.62501C2.41773 5.49999 2.25 5.33226 2.25 5.12498C2.25 4.91773 2.41773 4.75 2.62501 4.75H4.12502C4.3323 4.75 4.50004 4.91773 4.50004 5.12501C4.5 5.33229 4.33227 5.49999 4.12499 5.49999ZM15.375 5.49999H15V5.875C15 6.08228 14.8322 6.25001 14.625 6.25001C14.4177 6.25001 14.25 6.08228 14.25 5.875V5.49999H13.8749C13.6677 5.49999 13.4999 5.33226 13.4999 5.12498C13.4999 4.9177 13.6677 4.74996 13.8749 4.74996H14.25V4.37495C14.25 4.16767 14.4177 3.99994 14.625 3.99994C14.8322 3.99994 15 4.16767 15 4.37495V4.75H15.375C15.5823 4.75 15.75 4.91773 15.75 5.12501C15.75 5.33229 15.5823 5.49999 15.375 5.49999Z" fill="#5D6C7B"/>
</symbol>
<symbol  viewBox="0 0 12 18" fill="none" xmlns="http://www.w3.org/2000/svg" id="feature-energy">
<path d="M11.2233 0.260732C11.14 0.101188 10.9749 0 10.7948 0H3.72925C3.51557 0 3.32727 0.141421 3.26614 0.346092L0.742185 8.80412C0.698508 8.95043 0.726539 9.10792 0.817759 9.23032C0.908979 9.35277 1.0527 9.42405 1.20529 9.42405H5.16696L3.57097 17.4212C3.52452 17.6538 3.65367 17.8862 3.87586 17.9691C3.93126 17.9898 3.98841 18 4.04477 18C4.21428 18 4.37679 17.9106 4.46487 17.7559L10.689 6.82597C10.7741 6.67634 10.7733 6.49172 10.6868 6.34287C10.6003 6.19402 10.4412 6.10147 10.269 6.10147H7.46643L11.1912 0.760267C11.2942 0.612563 11.3066 0.420397 11.2233 0.260732Z" fill="#5D6C7B"/>
</symbol>
<symbol viewBox="0 0 18 18" fill="none" xmlns="http://www.w3.org/2000/svg" id="speed">
<path d="M8.47256 4.5644V1.23605C6.43975 1.35274 4.53344 2.14266 3.01184 3.49874L5.36506 5.85196C6.25065 5.11474 7.32597 4.66917 8.47256 4.5644Z" fill="#5D6C7B"/>
<path d="M4.61919 6.59759L2.266 4.24442C0.908759 5.76559 0.117849 7.67203 0.000427246 9.70533H3.32892C3.43438 8.5585 3.88087 7.48311 4.61919 6.59759Z" fill="#5D6C7B"/>
<path d="M14.671 9.70533H17.9995C17.8821 7.67203 17.0912 5.76559 15.7339 4.24442L13.3807 6.59759C14.1191 7.48307 14.5655 8.5585 14.671 9.70533Z" fill="#5D6C7B"/>
<path d="M14.6704 10.76C14.4959 12.676 13.4442 13.845 13.0266 14.2625C12.8203 14.4688 12.8203 14.8033 13.0266 15.0096L14.6267 16.6097C14.7298 16.7128 14.865 16.7644 15.0002 16.7644C15.1354 16.7644 15.2705 16.7128 15.3737 16.6097C16.9531 15.0305 17.874 12.9698 18 10.76H14.6704Z" fill="#5D6C7B"/>
<path d="M3.27189 13.7858C3.41919 13.5544 3.64215 13.2058 3.90962 12.7933C3.63544 12.2499 3.40358 11.5724 3.32965 10.76H0C0.126035 12.9698 1.04695 15.0305 2.62628 16.6097C2.72943 16.7129 2.8646 16.7644 2.99978 16.7644C3.13495 16.7644 3.27016 16.7128 3.37331 16.6097L3.92119 16.0618C3.76249 15.9854 3.61607 15.8821 3.48785 15.754C2.95952 15.2256 2.87068 14.4163 3.27189 13.7858Z" fill="#5D6C7B"/>
<path d="M9.52734 1.23605V4.5644C10.6739 4.66917 11.7493 5.1147 12.6348 5.85196L14.9881 3.49874C13.4665 2.14263 11.5601 1.35274 9.52734 1.23605Z" fill="#5D6C7B"/>
<path d="M7.82841 9.06992C7.01222 9.8861 4.45108 13.8972 4.16175 14.352C4.02903 14.5605 4.05899 14.8332 4.23375 15.008C4.40851 15.1827 4.68122 15.2127 4.88976 15.08C5.34444 14.7906 9.35564 12.2295 10.1718 11.4133C10.8179 10.7673 10.8179 9.71602 10.1718 9.06995C9.52576 8.42389 8.47448 8.42385 7.82841 9.06992Z" fill="#5D6C7B"/>
</symbol>
<symbol viewBox="0 0 16 18" fill="none" xmlns="http://www.w3.org/2000/svg" id="timer">
<path d="M13.4526 5.35819L14.5303 4.28044L13.4698 3.21956L12.3169 4.3725C11.2636 3.62609 10.0346 3.16607 8.75007 3.0375V1.5H10.2501V0H5.75007V1.5H7.25007V3.0375C5.96557 3.16607 4.7365 3.62609 3.68325 4.3725L2.53031 3.21956L1.46982 4.28044L2.54757 5.35819C1.54155 6.42334 0.869546 7.75982 0.614539 9.20259C0.359533 10.6454 0.532693 12.1312 1.11264 13.4767C1.69258 14.8222 2.6539 15.9683 3.8779 16.7736C5.10189 17.5788 6.53493 18.008 8.00007 18.008C9.4652 18.008 10.8982 17.5788 12.1222 16.7736C13.3462 15.9683 14.3076 14.8222 14.8875 13.4767C15.4674 12.1312 15.6406 10.6454 15.3856 9.20259C15.1306 7.75982 14.4586 6.42334 13.4526 5.35819ZM8.00007 16.5C6.81338 16.5 5.65334 16.1481 4.66664 15.4888C3.67995 14.8295 2.91091 13.8925 2.45679 12.7961C2.00266 11.6997 1.88384 10.4933 2.11535 9.32946C2.34686 8.16557 2.91831 7.09647 3.75742 6.25736C4.59654 5.41824 5.66564 4.8468 6.82952 4.61529C7.99341 4.38378 9.19981 4.5026 10.2962 4.95672C11.3925 5.41085 12.3296 6.17988 12.9889 7.16658C13.6482 8.15327 14.0001 9.31331 14.0001 10.5C13.9983 12.0908 13.3656 13.6158 12.2407 14.7407C11.1159 15.8655 9.59082 16.4982 8.00007 16.5Z" fill="#5D6C7B"/>
<path d="M8 6.00015V10.5002H3.5C3.5 11.3902 3.76392 12.2602 4.25839 13.0002C4.75285 13.7402 5.45566 14.317 6.27792 14.6576C7.10019 14.9982 8.00499 15.0873 8.87791 14.9137C9.75082 14.7401 10.5526 14.3115 11.182 13.6821C11.8113 13.0528 12.2399 12.251 12.4135 11.3781C12.5872 10.5051 12.4981 9.60034 12.1575 8.77808C11.8169 7.95581 11.2401 7.25301 10.5001 6.75854C9.76005 6.26407 8.89002 6.00015 8 6.00015Z" fill="#5D6C7B"/>
</symbol>
<symbol viewBox="0 0 20 18" fill="none" xmlns="http://www.w3.org/2000/svg" id="basket-transparent">
<path d="M19.703 6.22908C19.4389 5.89775 19.0427 5.70767 18.6159 5.70767H14.7642L12.6756 0.92513C12.5461 0.628607 12.2007 0.493099 11.9041 0.622669C11.6076 0.752161 11.4721 1.09759 11.6017 1.39415L13.4854 5.70771H6.51443L8.39822 1.39415C8.52771 1.09759 8.39232 0.7522 8.09576 0.622669C7.79924 0.493099 7.45381 0.628529 7.32432 0.92513L5.23568 5.70771H1.38396C0.957168 5.70771 0.560957 5.89775 0.296855 6.22911C0.0375977 6.55443 -0.0580664 6.97263 0.0343946 7.37661L2.09131 16.361C2.23494 16.9883 2.7899 17.4265 3.44088 17.4265H16.559C17.21 17.4265 17.7649 16.9883 17.9086 16.361L19.9655 7.37658C20.0579 6.97259 19.9623 6.55439 19.703 6.22908ZM16.559 16.2545H3.44088C3.34139 16.2545 3.25424 16.1893 3.23365 16.0994L1.17674 7.11509C1.16061 7.04458 1.18768 6.99154 1.2133 6.95947C1.23705 6.92962 1.29084 6.87958 1.38396 6.87958H4.72393L4.57045 7.23103C4.44096 7.52759 4.57635 7.87298 4.87291 8.00251C4.94924 8.03587 5.02877 8.05165 5.10709 8.05165C5.33295 8.05165 5.54818 7.92029 5.64436 7.70009L6.00268 6.87966H13.9973L14.3556 7.70009C14.4518 7.92033 14.667 8.05165 14.8929 8.05165C14.9712 8.05165 15.0507 8.03587 15.1271 8.00251C15.4236 7.87302 15.559 7.52759 15.4295 7.23103L15.276 6.87958H18.616C18.7091 6.87958 18.7629 6.92962 18.7867 6.95947C18.8122 6.99158 18.8394 7.04462 18.8232 7.11505L16.7663 16.0994C16.7457 16.1893 16.6585 16.2545 16.559 16.2545Z" fill="#6F73EE"/>
<path d="M19.703 6.22908C19.4389 5.89775 19.0427 5.70767 18.6159 5.70767H14.7642L12.6756 0.92513C12.5461 0.628607 12.2007 0.493099 11.9041 0.622669C11.6076 0.752161 11.4721 1.09759 11.6017 1.39415L13.4854 5.70771H6.51443L8.39822 1.39415C8.52771 1.09759 8.39232 0.7522 8.09576 0.622669C7.79924 0.493099 7.45381 0.628529 7.32432 0.92513L5.23568 5.70771H1.38396C0.957168 5.70771 0.560957 5.89775 0.296855 6.22911C0.0375977 6.55443 -0.0580664 6.97263 0.0343946 7.37661L2.09131 16.361C2.23494 16.9883 2.7899 17.4265 3.44088 17.4265H16.559C17.21 17.4265 17.7649 16.9883 17.9086 16.361L19.9655 7.37658C20.0579 6.97259 19.9623 6.55439 19.703 6.22908ZM16.559 16.2545H3.44088C3.34139 16.2545 3.25424 16.1893 3.23365 16.0994L1.17674 7.11509C1.16061 7.04458 1.18768 6.99154 1.2133 6.95947C1.23705 6.92962 1.29084 6.87958 1.38396 6.87958H4.72393L4.57045 7.23103C4.44096 7.52759 4.57635 7.87298 4.87291 8.00251C4.94924 8.03587 5.02877 8.05165 5.10709 8.05165C5.33295 8.05165 5.54818 7.92029 5.64436 7.70009L6.00268 6.87966H13.9973L14.3556 7.70009C14.4518 7.92033 14.667 8.05165 14.8929 8.05165C14.9712 8.05165 15.0507 8.03587 15.1271 8.00251C15.4236 7.87302 15.559 7.52759 15.4295 7.23103L15.276 6.87958H18.616C18.7091 6.87958 18.7629 6.92962 18.7867 6.95947C18.8122 6.99158 18.8394 7.04462 18.8232 7.11505L16.7663 16.0994C16.7457 16.1893 16.6585 16.2545 16.559 16.2545Z" stroke="#6F73EE"/>
</symbol>
<symbol xmlns="http://www.w3.org/2000/svg" viewBox="0 0 1024 1024" id="arrow-left"><path fill="#ffffff" d="M872 474H286.9l350.2-304c5.6-4.9 2.2-14-5.2-14h-88.5c-3.9 0-7.6 1.4-10.5 3.9L155 487.8a31.96 31.96 0 0 0 0 48.3L535.1 866c1.5 1.3 3.3 2 5.2 2h91.5c7.4 0 10.8-9.2 5.2-14L286.9 550H872c4.4 0 8-3.6 8-8v-60c0-4.4-3.6-8-8-8"/></symbol>
<symbol xmlns="http://www.w3.org/2000/svg" viewBox="0 0 1024 1024" id="arrow-right"><path fill="#ffffff" d="M869 487.8L491.2 159.9c-2.9-2.5-6.6-3.9-10.5-3.9h-88.5c-7.4 0-10.8 9.2-5.2 14l350.2 304H152c-4.4 0-8 3.6-8 8v60c0 4.4 3.6 8 8 8h585.1L386.9 854c-5.6 4.9-2.2 14 5.2 14h91.5c1.9 0 3.8-.7 5.2-2L869 536.2a32.07 32.07 0 0 0 0-48.4"/></symbol>

<symbol viewBox="0 0 134.622 45" fill="none" xmlns="http://www.w3.org/2000/svg" xmlns:xlink="http://www.w3.org/1999/xlink" id="appstore-badge">
	<desc>
			Created with Pixso.
	</desc>
	<defs>
		<clipPath id="clip1_16010">
			<rect id="Badge" rx="0.000000" width="134.272079" height="44.650002" transform="translate(0.175000 0.175000)" fill="white" fill-opacity="0"/>
		</clipPath>
	</defs>
	<rect id="Badge" rx="0.000000" width="134.272079" height="44.650002" transform="translate(0.175000 0.175000)" fill="#FFFFFF" fill-opacity="0"/>
	<g clip-path="url(#clip1_16010)">
		<path id="Vector" d="M123.9 -0.01L10.72 -0.01C10.31 -0.01 9.9 -0.01 9.49 0C9.15 0 8.8 0.01 8.46 0.01C7.7 0.02 6.95 0.09 6.2 0.21C5.46 0.34 4.74 0.57 4.06 0.92C3.39 1.26 2.78 1.71 2.24 2.24C1.71 2.77 1.26 3.39 0.92 4.07C0.57 4.74 0.34 5.46 0.21 6.21C0.09 6.95 0.02 7.7 0.01 8.46C0 8.8 0 9.15 0 9.49L0 35.5C0 35.85 0 36.19 0.01 36.54C0.02 37.29 0.09 38.04 0.21 38.79C0.34 39.53 0.57 40.26 0.92 40.93C1.26 41.6 1.71 42.22 2.24 42.75C2.77 43.28 3.39 43.73 4.06 44.07C4.74 44.41 5.46 44.65 6.2 44.78C6.95 44.9 7.7 44.97 8.46 44.98C8.8 44.99 9.15 44.99 9.49 44.99C9.9 44.99 10.31 44.99 10.72 44.99L123.9 44.99C124.3 44.99 124.71 44.99 125.12 44.99C125.46 44.99 125.81 44.99 126.15 44.98C126.91 44.97 127.66 44.9 128.4 44.78C129.15 44.65 129.87 44.41 130.55 44.07C131.22 43.73 131.84 43.28 132.37 42.75C132.91 42.21 133.35 41.6 133.7 40.93C134.04 40.26 134.27 39.53 134.39 38.79C134.52 38.04 134.59 37.29 134.6 36.54C134.61 36.19 134.61 35.85 134.61 35.5C134.62 35.09 134.62 34.68 134.62 34.27L134.62 10.72C134.62 10.31 134.62 9.9 134.61 9.49C134.61 9.15 134.61 8.8 134.6 8.46C134.59 7.7 134.52 6.95 134.39 6.21C134.27 5.46 134.04 4.74 133.7 4.07C133 2.71 131.9 1.61 130.55 0.92C129.87 0.57 129.15 0.34 128.4 0.21C127.66 0.09 126.91 0.02 126.15 0.01C125.81 0.01 125.46 0 125.12 0C124.71 -0.01 124.3 -0.01 123.9 -0.01L123.9 -0.01Z" fill="#FFFFFF" fill-opacity="1.000000" fill-rule="nonzero"/>
		<path id="&lt;Path&gt;" d="M28.12 22.37C28.13 21.39 28.39 20.44 28.87 19.59C29.35 18.74 30.04 18.02 30.87 17.51C30.34 16.76 29.65 16.14 28.84 15.7C28.03 15.26 27.13 15.02 26.2 14.99C24.24 14.78 22.34 16.16 21.33 16.16C20.31 16.16 18.77 15.01 17.11 15.04C16.04 15.08 14.99 15.39 14.08 15.95C13.16 16.51 12.4 17.3 11.88 18.23C9.62 22.15 11.3 27.91 13.47 31.07C14.56 32.63 15.82 34.36 17.48 34.3C19.1 34.23 19.71 33.26 21.67 33.26C23.61 33.26 24.18 34.3 25.87 34.26C27.61 34.23 28.71 32.7 29.76 31.13C30.53 30.03 31.13 28.81 31.53 27.52C30.52 27.09 29.66 26.37 29.05 25.46C28.44 24.54 28.12 23.47 28.12 22.37Z" fill="#282739" fill-opacity="1.000000" fill-rule="nonzero"/>
		<path id="&lt;Path&gt;" d="M24.92 12.91C25.87 11.77 26.34 10.3 26.22 8.82C24.77 8.97 23.43 9.67 22.47 10.76C22 11.3 21.64 11.92 21.41 12.6C21.18 13.27 21.09 13.99 21.13 14.7C21.86 14.7 22.58 14.55 23.23 14.24C23.89 13.93 24.47 13.47 24.92 12.91Z" fill="#282739" fill-opacity="1.000000" fill-rule="nonzero"/>
		<path id="Vector" d="M47.58 30.53L42.26 30.53L40.98 34.3L38.73 34.3L43.77 20.33L46.11 20.33L51.16 34.3L48.86 34.3L47.58 30.53ZM42.81 28.78L47.03 28.78L44.95 22.66L44.89 22.66L42.81 28.78Z" fill="#282739" fill-opacity="1.000000" fill-rule="nonzero"/>
		<path id="Vector" d="M62.05 29.21C62.05 32.38 60.36 34.41 57.8 34.41C57.15 34.44 56.51 34.29 55.94 33.98C55.37 33.66 54.91 33.2 54.59 32.63L54.55 32.63L54.55 37.67L52.45 37.67L52.45 24.12L54.48 24.12L54.48 25.81L54.52 25.81C54.84 25.25 55.32 24.78 55.89 24.46C56.46 24.15 57.11 23.99 57.76 24.01C60.35 24.01 62.05 26.05 62.05 29.21ZM59.9 29.21C59.9 27.15 58.83 25.79 57.21 25.79C55.61 25.79 54.54 27.18 54.54 29.21C54.54 31.26 55.61 32.64 57.21 32.64C58.83 32.64 59.9 31.29 59.9 29.21L59.9 29.21Z" fill="#282739" fill-opacity="1.000000" fill-rule="nonzero"/>
		<path id="Vector" d="M73.26 29.21C73.26 32.38 71.57 34.41 69.01 34.41C68.36 34.44 67.72 34.29 67.15 33.98C66.58 33.66 66.12 33.2 65.8 32.63L65.76 32.63L65.76 37.67L63.67 37.67L63.67 24.12L65.69 24.12L65.69 25.81L65.73 25.81C66.05 25.25 66.53 24.78 67.1 24.46C67.67 24.15 68.32 23.99 68.97 24.01C71.56 24.01 73.26 26.05 73.26 29.21ZM71.11 29.21C71.11 27.15 70.05 25.79 68.42 25.79C66.82 25.79 65.75 27.18 65.75 29.21C65.75 31.26 66.82 32.64 68.42 32.64C70.05 32.64 71.11 31.29 71.11 29.21Z" fill="#282739" fill-opacity="1.000000" fill-rule="nonzero"/>
		<path id="Vector" d="M80.67 30.41C80.82 31.8 82.17 32.71 84.01 32.71C85.77 32.71 87.04 31.8 87.04 30.55C87.04 29.46 86.27 28.81 84.46 28.37L82.65 27.93C80.09 27.31 78.9 26.11 78.9 24.17C78.9 21.76 81 20.1 83.98 20.1C86.93 20.1 88.96 21.76 89.02 24.17L86.91 24.17C86.79 22.77 85.63 21.93 83.95 21.93C82.27 21.93 81.11 22.78 81.11 24.02C81.11 25.01 81.85 25.59 83.65 26.03L85.19 26.41C88.06 27.09 89.25 28.24 89.25 30.29C89.25 32.9 87.16 34.54 83.85 34.54C80.76 34.54 78.66 32.94 78.53 30.41L80.67 30.41Z" fill="#282739" fill-opacity="1.000000" fill-rule="nonzero"/>
		<path id="Vector" d="M93.76 21.71L93.76 24.12L95.7 24.12L95.7 25.77L93.76 25.77L93.76 31.39C93.76 32.26 94.15 32.67 95 32.67C95.23 32.66 95.46 32.65 95.69 32.62L95.69 34.26C95.3 34.34 94.91 34.37 94.53 34.36C92.46 34.36 91.66 33.59 91.66 31.61L91.66 25.77L90.18 25.77L90.18 24.12L91.66 24.12L91.66 21.71L93.76 21.71Z" fill="#282739" fill-opacity="1.000000" fill-rule="nonzero"/>
		<path id="Vector" d="M96.82 29.21C96.82 26.01 98.7 23.99 101.65 23.99C104.6 23.99 106.48 26.01 106.48 29.21C106.48 32.42 104.61 34.43 101.65 34.43C98.69 34.43 96.82 32.42 96.82 29.21ZM104.35 29.21C104.35 27.01 103.34 25.72 101.65 25.72C99.95 25.72 98.95 27.02 98.95 29.21C98.95 31.42 99.95 32.71 101.65 32.71C103.34 32.71 104.35 31.42 104.35 29.21L104.35 29.21Z" fill="#282739" fill-opacity="1.000000" fill-rule="nonzero"/>
		<path id="Vector" d="M108.2 24.12L110.2 24.12L110.2 25.85L110.25 25.85C110.38 25.31 110.7 24.83 111.14 24.5C111.59 24.16 112.14 23.99 112.7 24.01C112.94 24.01 113.18 24.04 113.41 24.09L113.41 26.04C113.11 25.95 112.79 25.91 112.47 25.92C112.17 25.91 111.87 25.96 111.59 26.08C111.3 26.19 111.05 26.37 110.84 26.59C110.64 26.81 110.48 27.08 110.39 27.36C110.29 27.65 110.26 27.96 110.29 28.26L110.29 34.3L108.2 34.3L108.2 24.12Z" fill="#282739" fill-opacity="1.000000" fill-rule="nonzero"/>
		<path id="Vector" d="M123.05 31.31C122.77 33.16 120.97 34.43 118.67 34.43C115.7 34.43 113.86 32.44 113.86 29.26C113.86 26.06 115.71 23.99 118.58 23.99C121.4 23.99 123.17 25.93 123.17 29.02L123.17 29.73L115.97 29.73L115.97 29.86C115.94 30.23 115.99 30.61 116.11 30.97C116.24 31.32 116.43 31.65 116.69 31.92C116.95 32.19 117.27 32.41 117.62 32.55C117.96 32.69 118.34 32.76 118.71 32.74C119.21 32.79 119.7 32.68 120.13 32.42C120.55 32.16 120.88 31.77 121.07 31.31L123.05 31.31ZM115.98 28.27L121.08 28.27C121.1 27.93 121.04 27.6 120.93 27.28C120.81 26.96 120.63 26.68 120.39 26.43C120.16 26.19 119.88 26 119.56 25.87C119.25 25.74 118.92 25.68 118.58 25.69C118.24 25.68 117.9 25.75 117.59 25.88C117.27 26.01 116.98 26.2 116.74 26.44C116.5 26.68 116.31 26.96 116.18 27.28C116.05 27.59 115.98 27.93 115.98 28.27L115.98 28.27Z" fill="#282739" fill-opacity="1.000000" fill-rule="nonzero"/>
		<path id="Vector" d="M41.33 12.66L42.22 12.66C42.38 12.67 42.53 12.66 42.68 12.62C42.83 12.57 42.97 12.5 43.09 12.4C43.21 12.3 43.31 12.17 43.37 12.03C43.44 11.89 43.48 11.74 43.49 11.59C43.49 10.97 43.02 10.57 42.23 10.57C42.07 10.54 41.91 10.55 41.76 10.59C41.6 10.64 41.46 10.71 41.33 10.81C41.21 10.9 41.1 11.03 41.02 11.17C40.95 11.3 40.9 11.46 40.88 11.62L39.89 11.62C39.91 11.33 39.99 11.05 40.12 10.79C40.25 10.53 40.43 10.3 40.65 10.12C40.87 9.94 41.13 9.8 41.41 9.72C41.69 9.64 41.98 9.62 42.26 9.65C43.59 9.65 44.52 10.39 44.52 11.46C44.52 11.82 44.4 12.16 44.18 12.44C43.96 12.72 43.65 12.92 43.3 12.99L43.3 13.07C43.71 13.09 44.1 13.27 44.38 13.58C44.66 13.88 44.81 14.28 44.79 14.7C44.76 14.99 44.67 15.28 44.53 15.54C44.38 15.81 44.19 16.04 43.96 16.22C43.72 16.41 43.45 16.54 43.17 16.63C42.88 16.71 42.58 16.73 42.28 16.69C41.99 16.73 41.68 16.71 41.4 16.63C41.11 16.56 40.84 16.42 40.6 16.23C40.37 16.05 40.17 15.82 40.03 15.56C39.88 15.29 39.79 15 39.76 14.71L40.76 14.71C40.82 15.35 41.41 15.76 42.28 15.76C43.15 15.76 43.72 15.3 43.72 14.64C43.72 13.98 43.19 13.57 42.25 13.57L41.33 13.57L41.33 12.66Z" fill="#282739" fill-opacity="1.000000" fill-rule="nonzero"/>
		<path id="Vector" d="M45.93 15.1C45.93 14.19 46.61 13.66 47.81 13.58L49.18 13.51L49.18 13.07C49.18 12.53 48.83 12.23 48.15 12.23C47.59 12.23 47.2 12.44 47.09 12.79L46.12 12.79C46.23 11.92 47.05 11.37 48.19 11.37C49.46 11.37 50.18 12 50.18 13.07L50.18 16.53L49.22 16.53L49.22 15.82L49.14 15.82C48.98 16.07 48.75 16.28 48.48 16.42C48.22 16.56 47.92 16.63 47.62 16.61C47.4 16.64 47.19 16.61 46.99 16.55C46.78 16.48 46.59 16.37 46.44 16.23C46.28 16.09 46.15 15.91 46.06 15.72C45.97 15.52 45.93 15.31 45.93 15.1ZM49.18 14.66L49.18 14.24L47.95 14.32C47.25 14.37 46.93 14.6 46.93 15.05C46.93 15.51 47.33 15.77 47.87 15.77C48.03 15.79 48.19 15.77 48.35 15.72C48.5 15.68 48.64 15.6 48.76 15.5C48.89 15.39 48.99 15.27 49.06 15.12C49.13 14.98 49.17 14.82 49.18 14.66Z" fill="#282739" fill-opacity="1.000000" fill-rule="nonzero"/>
		<path id="Vector" d="M52.83 12.31L52.83 16.53L51.83 16.53L51.83 11.46L55.17 11.46L55.17 12.31L52.83 12.31Z" fill="#282739" fill-opacity="1.000000" fill-rule="nonzero"/>
		<path id="Vector" d="M61.23 14C61.23 15.6 60.41 16.61 59.14 16.61C58.82 16.64 58.51 16.57 58.23 16.42C57.96 16.27 57.73 16.04 57.58 15.76L57.5 15.76L57.5 18.21L56.5 18.21L56.5 11.46L57.46 11.46L57.46 12.3L57.53 12.3C57.69 12.02 57.92 11.78 58.2 11.62C58.48 11.45 58.8 11.37 59.13 11.38C60.41 11.38 61.23 12.39 61.23 14ZM60.2 14C60.2 12.93 59.69 12.28 58.85 12.28C58.01 12.28 57.48 12.94 57.48 14C57.48 15.06 58.01 15.72 58.84 15.72C59.69 15.72 60.2 15.07 60.2 14Z" fill="#282739" fill-opacity="1.000000" fill-rule="nonzero"/>
		<path id="Vector" d="M62.56 18.34L62.56 17.48C62.67 17.5 62.78 17.5 62.89 17.5C63.1 17.52 63.31 17.45 63.48 17.32C63.65 17.19 63.76 17 63.8 16.79L63.88 16.55L62.04 11.46L63.13 11.46L64.4 15.49L64.48 15.49L65.75 11.46L66.81 11.46L64.92 16.74C64.49 17.97 64.01 18.37 62.97 18.37C62.89 18.37 62.65 18.36 62.56 18.34Z" fill="#282739" fill-opacity="1.000000" fill-rule="nonzero"/>
		<path id="Vector" d="M67.59 15.09L68.58 15.09C68.68 15.54 69.1 15.77 69.68 15.77C70.35 15.77 70.76 15.48 70.76 15.02C70.76 14.53 70.39 14.3 69.68 14.3L68.93 14.3L68.93 13.52L69.67 13.52C70.27 13.52 70.58 13.29 70.58 12.87C70.58 12.5 70.28 12.21 69.67 12.21C69.11 12.21 68.7 12.45 68.64 12.85L67.67 12.85C67.75 12.39 68 11.98 68.37 11.7C68.74 11.42 69.21 11.3 69.67 11.37C70.87 11.37 71.56 11.91 71.56 12.77C71.57 13 71.49 13.24 71.35 13.43C71.2 13.62 71 13.75 70.76 13.8L70.76 13.88C71.04 13.92 71.29 14.05 71.48 14.26C71.66 14.47 71.76 14.74 71.75 15.02C71.75 15.99 70.93 16.62 69.68 16.62C68.58 16.62 67.68 16.12 67.59 15.09Z" fill="#282739" fill-opacity="1.000000" fill-rule="nonzero"/>
		<path id="Vector" d="M73.19 16.53L73.19 11.46L74.19 11.46L74.19 14.95L74.26 14.95L76.6 11.46L77.59 11.46L77.59 16.53L76.6 16.53L76.6 13.03L76.52 13.03L74.19 16.53L73.19 16.53Z" fill="#282739" fill-opacity="1.000000" fill-rule="nonzero"/>
		<path id="Vector" d="M83.05 12.31L81.45 12.31L81.45 16.53L80.45 16.53L80.45 12.31L78.86 12.31L78.86 11.46L83.05 11.46L83.05 12.31Z" fill="#282739" fill-opacity="1.000000" fill-rule="nonzero"/>
		<path id="Vector" d="M88.43 15.16C88.3 15.62 88 16.03 87.6 16.29C87.2 16.56 86.72 16.68 86.24 16.63C85.9 16.64 85.57 16.57 85.27 16.44C84.96 16.31 84.69 16.11 84.46 15.86C84.24 15.61 84.07 15.32 83.98 15C83.88 14.68 83.85 14.34 83.9 14.01C83.85 13.68 83.88 13.34 83.98 13.02C84.08 12.7 84.24 12.41 84.46 12.16C84.68 11.91 84.96 11.7 85.26 11.57C85.57 11.43 85.9 11.36 86.23 11.37C87.64 11.37 88.49 12.33 88.49 13.92L88.49 14.27L84.92 14.27L84.92 14.32C84.9 14.51 84.93 14.7 84.99 14.87C85.05 15.05 85.14 15.21 85.27 15.35C85.4 15.49 85.55 15.59 85.72 15.67C85.9 15.74 86.08 15.78 86.27 15.78C86.51 15.8 86.75 15.76 86.96 15.65C87.18 15.54 87.35 15.37 87.47 15.16L88.43 15.16ZM84.92 13.53L87.48 13.53C87.49 13.36 87.46 13.19 87.41 13.03C87.35 12.87 87.26 12.72 87.14 12.6C87.03 12.47 86.88 12.38 86.73 12.31C86.57 12.24 86.4 12.21 86.23 12.22C86.06 12.21 85.88 12.25 85.72 12.31C85.56 12.38 85.42 12.47 85.3 12.6C85.17 12.72 85.08 12.86 85.01 13.02C84.95 13.18 84.92 13.36 84.92 13.53L84.92 13.53Z" fill="#282739" fill-opacity="1.000000" fill-rule="nonzero"/>
		<path id="Vector" d="M92.67 11.46L94.96 11.46C95.95 11.46 96.53 11.97 96.53 12.75C96.53 13 96.45 13.24 96.29 13.44C96.14 13.63 95.92 13.77 95.67 13.82L95.67 13.9C95.97 13.92 96.25 14.05 96.45 14.27C96.65 14.49 96.76 14.77 96.76 15.07C96.76 15.95 96.09 16.53 94.98 16.53L92.67 16.53L92.67 11.46ZM93.66 12.23L93.66 13.54L94.65 13.54C95.26 13.54 95.55 13.31 95.55 12.88C95.55 12.49 95.3 12.23 94.77 12.23L93.66 12.23ZM93.66 14.28L93.66 15.76L94.85 15.76C95.44 15.76 95.76 15.5 95.76 15.02C95.76 14.52 95.4 14.28 94.72 14.28L93.66 14.28Z" fill="#282739" fill-opacity="1.000000" fill-rule="nonzero"/>
	</g>
</symbol>
<symbol viewBox="0 0 19.9993 11.6666" fill="none" xmlns="http://www.w3.org/2000/svg" xmlns:xlink="http://www.w3.org/1999/xlink" id='vk-icon'>
	<desc>
			Created with Pixso.
	</desc>
	<defs/>
	<path id="Vector" d="M16.59 6.68C16.27 6.28 16.36 6.09 16.59 5.73C16.6 5.73 19.26 2.04 19.54 0.79L19.54 0.79C19.68 0.33 19.54 0 18.88 0L16.69 0C16.14 0 15.88 0.28 15.74 0.6C15.74 0.6 14.63 3.27 13.05 5C12.55 5.5 12.31 5.66 12.03 5.66C11.9 5.66 11.68 5.5 11.68 5.04L11.68 0.79C11.68 0.24 11.53 0 11.07 0L7.63 0C7.28 0 7.07 0.25 7.07 0.49C7.07 1.01 7.86 1.13 7.94 2.58L7.94 5.75C7.94 6.44 7.82 6.57 7.54 6.57C6.79 6.57 4.99 3.89 3.92 0.83C3.7 0.24 3.49 0 2.93 0L0.75 0C0.12 0 0 0.28 0 0.6C0 1.17 0.74 4 3.45 7.73C5.26 10.28 7.81 11.66 10.12 11.66C11.52 11.66 11.69 11.36 11.69 10.83C11.69 8.39 11.56 8.16 12.26 8.16C12.58 8.16 13.14 8.32 14.44 9.55C15.92 11.01 16.17 11.66 17 11.66L19.19 11.66C19.81 11.66 20.12 11.36 19.94 10.75C19.53 9.48 16.72 6.86 16.59 6.68Z" fill="#4B729F" fill-opacity="1.000000" fill-rule="nonzero"/>
</symbol>
<symbol viewBox="0 0 20.0138 14.1608" fill="none" xmlns="http://www.w3.org/2000/svg" xmlns:xlink="http://www.w3.org/1999/xlink" id="youtube">
	<desc>
			Created with Pixso.
	</desc>
	<defs/>
	<path id="Vector" d="M0.44 11.97C0.85 13.42 2.1 13.68 2.18 13.74C4.24 14.3 15.76 14.3 17.85 13.74C19.28 13.32 19.54 12.05 19.59 11.97C20.13 9.08 20.17 5.3 19.57 2.02L19.59 2.18C19.18 0.73 17.93 0.47 17.85 0.42C15.82 -0.13 4.27 -0.16 2.18 0.42C0.75 0.83 0.49 2.1 0.44 2.18C-0.14 5.22 -0.17 8.71 0.44 11.97ZM8.01 10.12L8.01 4.04L13.24 7.08L8.01 10.12Z" fill="#E53935" fill-opacity="1.000000" fill-rule="nonzero"/>
</symbol>
<symbol viewBox="0 0 19.9995 16.6667" fill="none" xmlns="http://www.w3.org/2000/svg" xmlns:xlink="http://www.w3.org/1999/xlink" id="telegram-footer">
	<desc>
			Created with Pixso.
	</desc>
	<defs/>
	<path id="Vector" d="M7.84 10.98L7.51 15.63C7.99 15.63 8.19 15.43 8.44 15.19L10.66 13.06L15.25 16.43C16.1 16.9 16.69 16.65 16.92 15.66L19.94 1.51L19.94 1.51C20.21 0.27 19.49 -0.22 18.67 0.08L0.92 6.88C-0.29 7.35 -0.27 8.02 0.72 8.33L5.25 9.74L15.79 3.15C16.29 2.82 16.74 3 16.37 3.33L7.84 10.98Z" fill="#039BE5" fill-opacity="1.000000" fill-rule="nonzero"/>
</symbol>
<symbol viewBox="0 0 26 11" fill="none" xmlns="http://www.w3.org/2000/svg" id="google-pay">
<path fill-rule="evenodd" clip-rule="evenodd" d="M12.0943 8.65901V5.7177H13.6124C14.2345 5.7177 14.7595 5.50926 15.1875 5.09817L15.2903 4.99395C16.0721 4.14283 16.0208 2.81692 15.1875 2.02948C14.7709 1.6126 14.2002 1.38679 13.6124 1.39837H11.1755V8.65901H12.0943ZM12.0944 4.82599V2.28998H13.6356C13.9666 2.28998 14.2806 2.41736 14.5146 2.64896C15.0112 3.13532 15.0226 3.94591 14.5432 4.44964C14.3091 4.69861 13.9781 4.83757 13.6356 4.82599H12.0944ZM19.5763 4.07912C19.1825 3.71435 18.646 3.52907 17.9669 3.52907C17.0937 3.52907 16.4374 3.85331 16.0037 4.496L16.8141 5.01131C17.1108 4.57127 17.516 4.35125 18.0297 4.35125C18.355 4.35125 18.6689 4.47284 18.9143 4.69286C19.154 4.9013 19.2909 5.20238 19.2909 5.52082V5.73505C18.9371 5.53819 18.4919 5.43398 17.9441 5.43398C17.3049 5.43398 16.7912 5.58451 16.4089 5.89138C16.0265 6.19825 15.8325 6.60355 15.8325 7.11886C15.8211 7.58785 16.0208 8.03368 16.3746 8.33476C16.7342 8.659 17.1907 8.82112 17.7272 8.82112C18.3607 8.82112 18.8629 8.53741 19.2453 7.96999H19.2852V8.659H20.1641V5.59609C20.1641 4.95341 19.9701 4.44389 19.5763 4.07912ZM17.0825 7.74422C16.8941 7.60526 16.78 7.37945 16.78 7.13627C16.78 6.86414 16.9055 6.63833 17.151 6.45884C17.4021 6.27935 17.7161 6.18671 18.0871 6.18671C18.6008 6.18092 19.0003 6.29672 19.2857 6.52832C19.2857 6.92204 19.1316 7.26365 18.8291 7.55315C18.5551 7.83107 18.1841 7.98739 17.796 7.98739C17.5391 7.99318 17.288 7.90633 17.0825 7.74422ZM22.1388 10.8418L25.2091 3.69118H24.2104L22.7894 7.25781H22.7722L21.3169 3.69118H20.3182L22.3328 8.34054L21.1914 10.8418H22.1388Z" fill="#282739"/>
<path d="M8.92219 5.08081C8.92219 4.7971 8.89936 4.51339 8.85371 4.23547H4.97864V5.8393H7.19867C7.10736 6.35461 6.81059 6.81781 6.37686 7.10731V8.1495H7.70089C8.47704 7.42575 8.92219 6.35461 8.92219 5.08081Z" fill="#4285F4"/>
<path d="M4.97882 9.157C6.08599 9.157 7.02194 8.78644 7.70107 8.14954L6.37704 7.10735C6.00609 7.36211 5.5324 7.50686 4.97882 7.50686C3.9059 7.50686 2.99848 6.77153 2.67318 5.78723H1.3092V6.86417C2.00546 8.27113 3.42651 9.157 4.97882 9.157Z" fill="#34A853"/>
<path d="M2.67333 5.78722C2.50209 5.27192 2.50209 4.71029 2.67333 4.18919V3.11804H1.30913C0.721215 4.29341 0.721215 5.683 1.30913 6.85837L2.67333 5.78722Z" fill="#FBBC04"/>
<path d="M4.97882 2.46949C5.56665 2.45791 6.13164 2.68372 6.55396 3.09481L7.72961 1.90207C6.98199 1.19569 6.00038 0.807764 4.97882 0.819344C3.42651 0.819344 2.00546 1.711 1.3092 3.11797L2.67318 4.1949C2.99848 3.20482 3.9059 2.46949 4.97882 2.46949Z" fill="#EA4335"/>
</symbol>
<symbol viewBox="0 0 26 11" fill="none" xmlns="http://www.w3.org/2000/svg" id="apple-pay">
<path fill-rule="evenodd" clip-rule="evenodd" d="M5.27297 1.43958C4.98694 1.7822 4.52929 2.05244 4.07165 2.01383C4.01444 1.55057 4.2385 1.05836 4.50069 0.754343C4.78672 0.402072 5.28728 0.151138 5.69249 0.131836C5.74016 0.614399 5.55424 1.08731 5.27297 1.43958ZM5.68769 2.10551C5.2845 2.08202 4.91662 2.22825 4.61947 2.34636C4.42825 2.42237 4.26632 2.48673 4.14312 2.48673C4.00487 2.48673 3.83625 2.41892 3.64694 2.34279C3.39887 2.24304 3.11526 2.12899 2.81785 2.13446C2.13614 2.14411 1.5021 2.53499 1.1541 3.15749C0.439024 4.40251 0.96818 6.2459 1.65942 7.25928C1.99789 7.76115 2.4031 8.31127 2.93702 8.29197C3.17192 8.283 3.34089 8.21042 3.51576 8.13531C3.71708 8.04883 3.92621 7.959 4.25277 7.959C4.568 7.959 4.76799 8.04649 4.95997 8.13048C5.14251 8.21033 5.31781 8.28702 5.57804 8.28232C6.13103 8.27267 6.47904 7.78045 6.81751 7.27859C7.18276 6.73996 7.34328 6.21428 7.36764 6.13449L7.36764 6.13449L7.3705 6.12526C7.36992 6.12467 7.3654 6.12258 7.35744 6.11889C7.23534 6.0623 6.30207 5.62981 6.29312 4.47007C6.28413 3.49663 7.03336 3.00342 7.1513 2.92579L7.15131 2.92578C7.15849 2.92106 7.16332 2.91787 7.16551 2.91621C6.68879 2.20202 5.94511 2.12481 5.68769 2.10551ZM9.51577 8.22923V0.70607H12.3046C13.7443 0.70607 14.7501 1.7098 14.7501 3.17679C14.7501 4.64379 13.7252 5.65717 12.2664 5.65717H10.6694V8.22923H9.51577ZM10.6693 1.69052H11.9994C13.0005 1.69052 13.5725 2.23099 13.5725 3.18164C13.5725 4.13229 13.0005 4.67759 11.9946 4.67759H10.6693V1.69052ZM18.5592 7.32688C18.2541 7.91561 17.5819 8.28718 16.8573 8.28718C15.7847 8.28718 15.0362 7.64055 15.0362 6.66577C15.0362 5.70064 15.7608 5.1457 17.1004 5.06366L18.5401 4.9768V4.56179C18.5401 3.94894 18.1444 3.61597 17.4389 3.61597C16.8573 3.61597 16.433 3.91999 16.3472 4.38325H15.3079C15.3413 3.40847 16.2471 2.6991 17.4722 2.6991C18.7928 2.6991 19.6508 3.39882 19.6508 4.48458V8.22928H18.583V7.32688H18.5592ZM17.1671 7.39441C16.5521 7.39441 16.1612 7.09522 16.1612 6.63678C16.1612 6.16387 16.5378 5.88881 17.2576 5.84538L18.54 5.76335V6.188C18.54 6.89254 17.9489 7.39441 17.1671 7.39441ZM23.1928 8.52363C22.7304 9.84103 22.2012 10.2753 21.0762 10.2753C20.9904 10.2753 20.7043 10.2657 20.6376 10.2464V9.34399C20.7091 9.35364 20.8855 9.36329 20.9761 9.36329C21.4862 9.36329 21.7722 9.14614 21.9486 8.58154L22.0535 8.24857L20.0989 2.77148H21.305L22.6637 7.21589H22.6875L24.0461 2.77148H25.2189L23.1928 8.52363Z" fill="#282739"/>
</symbol>
<symbol viewBox="0 0 25 9" fill="none" xmlns="http://www.w3.org/2000/svg" id="visa">
<path fill-rule="evenodd" clip-rule="evenodd" d="M6.23608 8.14597H4.17166L2.6236 2.24001C2.55012 1.96834 2.3941 1.72816 2.16461 1.61497C1.59189 1.3305 0.960785 1.1041 0.272308 0.98992V0.762541H3.59793C4.05691 0.762541 4.40115 1.1041 4.45853 1.50079L5.26175 5.76095L7.32516 0.762541H9.33221L6.23608 8.14597ZM10.4797 8.14597H8.52999L10.1354 0.762541H12.0851L10.4797 8.14597ZM14.6075 2.808C14.6649 2.41034 15.0091 2.18296 15.4107 2.18296C16.0418 2.12586 16.7293 2.24005 17.303 2.52353L17.6473 0.933846C17.0735 0.706467 16.4424 0.592285 15.8697 0.592285C13.9774 0.592285 12.6005 1.615 12.6005 3.0344C12.6005 4.1142 13.5758 4.68117 14.2643 5.02274C15.0091 5.36331 15.296 5.59069 15.2386 5.93127C15.2386 6.44213 14.6649 6.66951 14.0922 6.66951C13.4037 6.66951 12.7152 6.49923 12.0851 6.21476L11.7409 7.80543C12.4293 8.08891 13.1742 8.20309 13.8627 8.20309C15.9845 8.2592 17.303 7.23747 17.303 5.70389C17.303 3.77264 14.6075 3.65944 14.6075 2.808V2.808ZM24.1264 8.14597L22.5783 0.762541H20.9155C20.5713 0.762541 20.2271 0.98992 20.1123 1.3305L17.2457 8.14597H19.2527L19.6533 7.06715H22.1194L22.3488 8.14597H24.1264ZM21.2024 2.75094L21.7751 5.53363H20.1697L21.2024 2.75094Z" fill="#172B85"/>
</symbol>
<symbol viewBox="0 0 23 14" fill="none" xmlns="http://www.w3.org/2000/svg" id="mastercard">
<path fill-rule="evenodd" clip-rule="evenodd" d="M15.3767 13.8447C19.046 13.8447 22.0206 10.8356 22.0206 7.12371C22.0206 3.4118 19.046 0.40271 15.3767 0.40271C13.7323 0.40271 12.2273 1.0071 11.0672 2.00828C9.90702 1.00712 8.40211 0.402738 6.75766 0.402738C3.08835 0.402738 0.113785 3.41183 0.113785 7.12374C0.113785 10.8356 3.08835 13.8447 6.75766 13.8447C8.40212 13.8447 9.90705 13.2403 11.0672 12.2392C12.2274 13.2403 13.7323 13.8447 15.3767 13.8447Z" fill="#ED0006"/>
<path fill-rule="evenodd" clip-rule="evenodd" d="M11.0672 12.2392C12.4957 11.0064 13.4015 9.17206 13.4015 7.12371C13.4015 5.07535 12.4957 3.24102 11.0672 2.00826C12.2274 1.0071 13.7323 0.40271 15.3767 0.40271C19.046 0.40271 22.0206 3.4118 22.0206 7.12371C22.0206 10.8356 19.046 13.8447 15.3767 13.8447C13.7323 13.8447 12.2274 13.2403 11.0672 12.2392Z" fill="#F9A000"/>
<path fill-rule="evenodd" clip-rule="evenodd" d="M11.0672 12.2391C12.4957 11.0064 13.4015 9.17206 13.4015 7.12372C13.4015 5.07538 12.4957 3.24106 11.0672 2.0083C9.63871 3.24106 8.73291 5.07538 8.73291 7.12372C8.73291 9.17206 9.63871 11.0064 11.0672 12.2391Z" fill="#FF5E00"/>
</symbol>

<symbol viewBox="0 0 22 14" fill="none" xmlns="http://www.w3.org/2000/svg" id="maestro">
<path d="M13.347 7.12371C13.347 10.8356 10.3724 13.8447 6.70312 13.8447C3.03381 13.8447 0.0592499 10.8356 0.0592499 7.12371C0.0592499 3.4118 3.03381 0.40271 6.70312 0.40271C10.3724 0.40271 13.347 3.4118 13.347 7.12371Z" fill="#ED0006"/>
<path d="M21.9661 7.12371C21.9661 10.8356 18.9915 13.8447 15.3222 13.8447C11.6529 13.8447 8.67831 10.8356 8.67831 7.12371C8.67831 3.4118 11.6529 0.40271 15.3222 0.40271C18.9915 0.40271 21.9661 3.4118 21.9661 7.12371Z" fill="#0099DF"/>
<path fill-rule="evenodd" clip-rule="evenodd" d="M11.0127 12.2391C12.4412 11.0064 13.347 9.17206 13.347 7.12372C13.347 5.07538 12.4412 3.24106 11.0127 2.0083C9.58418 3.24106 8.67838 5.07538 8.67838 7.12372C8.67838 9.17206 9.58418 11.0064 11.0127 12.2391Z" fill="#6C6BBD"/>
</symbol>
<symbol viewBox="0 0 24 16" fill="none" xmlns="http://www.w3.org/2000/svg" id="webmoney">
<path fill-rule="evenodd" clip-rule="evenodd" d="M7.54742 12.0491C7.69995 11.9699 7.95923 11.8659 8.23388 11.8659C8.86432 11.8659 9.20508 12.2916 9.20508 13.0838C9.20508 14.0091 8.74758 14.4596 8.01022 14.4596C7.7406 14.4596 7.32367 14.3755 7.01852 14.2169V10.7622L7.54742 10.6384V12.0491ZM7.54241 14.0338C7.70501 14.1031 7.88308 14.1129 8.01024 14.1129C8.38653 14.1129 8.67125 13.8853 8.67125 13.0837C8.67125 12.4549 8.43734 12.252 8.09667 12.252C7.89315 12.252 7.74584 12.3064 7.54241 12.4153V14.0338ZM2.12647 11.9301H2.16208L2.85349 14.4001H3.40262L4.22651 10.8907H3.6315L3.11286 13.5092H3.07742L2.37046 10.8907H1.91791L1.2569 13.5092H1.22128L0.651735 10.8907H0.0822754L0.906067 14.4001H1.45511L2.12647 11.9301ZM6.4798 14.2317V13.8556C6.2001 14.0189 5.94595 14.1129 5.67139 14.1129C5.14761 14.1129 4.8985 13.8505 4.8985 13.2566H6.55606V13.0736C6.55606 12.2669 6.16449 11.8659 5.52902 11.8659C4.76629 11.8659 4.37472 12.4104 4.37472 13.1626C4.37472 13.9448 4.72555 14.4596 5.57974 14.4596C5.94595 14.4596 6.25101 14.3606 6.4798 14.2317ZM6.07299 12.9251H4.9088C4.96456 12.4303 5.20342 12.1976 5.51379 12.1976C5.78835 12.1976 6.04781 12.4053 6.07299 12.9251ZM11.5442 13.6576H11.5187L10.3797 10.8907H9.76445V14.4001H10.2221V11.9154H10.2678L11.3053 14.4001H11.6306L12.668 11.856H12.7138V14.4001H13.263V10.8907H12.6323L11.5442 13.6576ZM13.8224 13.1626C13.8224 12.2964 14.3106 11.8659 14.9817 11.8659C15.653 11.8659 16.1412 12.2964 16.1412 13.1626C16.1412 14.0091 15.6785 14.4596 14.9817 14.4596C14.285 14.4596 13.8224 14.0091 13.8224 13.1626ZM15.6072 13.1626C15.6072 12.4945 15.3274 12.2124 14.9817 12.2124C14.6461 12.2124 14.3562 12.4945 14.3562 13.1626C14.3562 13.8409 14.6208 14.1129 14.9817 14.1129C15.3427 14.1129 15.6072 13.8409 15.6072 13.1626ZM17.9206 11.8659C17.3361 11.8659 16.8529 12.0985 16.6241 12.2321V14.4001H17.153V12.44C17.3105 12.3511 17.5699 12.2618 17.7734 12.2618C18.0327 12.2618 18.2308 12.3311 18.2308 12.7222V14.4001H18.7596V12.6082C18.7596 12.0985 18.531 11.8659 17.9206 11.8659ZM21.3376 13.8556V14.2317C21.1089 14.3606 20.8039 14.4596 20.4376 14.4596C19.5835 14.4596 19.2326 13.9448 19.2326 13.1626C19.2326 12.4104 19.6243 11.8659 20.3869 11.8659C21.0227 11.8659 21.4143 12.2669 21.4143 13.0736V13.2566H19.7566C19.7566 13.8505 20.0057 14.1129 20.5294 14.1129C20.8039 14.1129 21.0582 14.0189 21.3376 13.8556ZM19.7667 12.9251H20.9311C20.9058 12.4053 20.6463 12.1976 20.3717 12.1976C20.0614 12.1976 19.8227 12.4303 19.7667 12.9251ZM23.9364 11.95H23.3923L22.8124 13.7714H22.7821L22.1312 11.95H21.5718L22.5482 14.4248C22.4259 14.791 22.2126 15.0585 21.8668 15.0585V15.4642C22.4513 15.4642 22.7616 15.108 23.0159 14.4248L23.9364 11.95Z" fill="#0068A3"/>
<path fill-rule="evenodd" clip-rule="evenodd" d="M11.6684 0.515991C12.3682 0.515991 13.0309 0.674612 13.6211 0.956226C13.7138 0.999033 13.8063 1.04613 13.899 1.09813L13.4887 1.45555L12.8723 0.83516L11.832 1.73839L11.214 1.08193L9.27607 2.7823L10.5185 4.11508L10.0302 4.53308L11.254 5.86788L10.7686 6.28492L12.5173 8.17953L13.5553 7.24934L14.4527 8.24615C14.2742 8.38122 14.0798 8.50833 13.8656 8.62581C13.2166 8.98603 12.4665 9.19228 11.6684 9.19228C9.21374 9.19228 7.21173 7.2433 7.21173 4.85426C7.21173 2.4647 9.21374 0.515991 11.6684 0.515991ZM10.8561 4.58003L11.9159 3.65107L12.8702 4.68289L11.8105 5.61151L10.8561 4.58003ZM12.6696 5.43385L11.6098 6.36255L12.5642 7.39438L13.624 6.46541L12.6696 5.43385ZM10.0979 2.81844L11.1576 1.88974L12.1117 2.9213L11.0519 3.85001L10.0979 2.81844ZM12.8375 1.62202L12.0426 2.31849L12.7582 3.09242L13.5531 2.3957L12.8375 1.62202ZM13.4548 5.50921L14.2499 4.81249L14.9655 5.58634L14.1707 6.28289L13.4548 5.50921ZM14.9487 6.37516L14.1541 7.07197L14.8697 7.84538L15.6645 7.14883L14.9487 6.37516ZM14.4742 3.4903L15.0041 3.0259L15.4811 3.54169L14.9515 4.006L14.4742 3.4903ZM14.3271 1.49343L13.7972 1.95773L14.2742 2.47352L14.8042 2.00921L14.3271 1.49343ZM15.1516 5.02272L15.6815 4.55832L16.1586 5.07402L15.6287 5.53841L15.1516 5.02272ZM13.57 3.17756L12.7752 3.87437L13.491 4.64778L14.2856 3.95123L13.57 3.17756Z" fill="#0068A3"/>
</symbol>
<symbol viewBox="0 0 16 17" fill="none" xmlns="http://www.w3.org/2000/svg" id="qiwi">
<path fill-rule="evenodd" clip-rule="evenodd" d="M0.409096 7.57878C0.409096 11.3487 3.48359 14.4232 7.29012 14.4232C7.75733 14.4232 8.22454 14.3823 8.76137 14.3353C9.36002 14.2829 10.0453 14.2229 10.9136 14.2036C12.2313 14.2036 13.6587 14.6794 15.2326 16.0702C15.379 16.2167 15.5986 16.0336 15.4522 15.8506C13.8783 13.9108 12.4509 13.5448 11.0234 13.2154C9.26658 12.8127 8.35155 11.8611 7.72933 10.7631C7.61953 10.5435 7.54633 10.5801 7.54633 10.8729C7.50972 11.3121 7.54633 11.7147 7.61953 12.1173H7.39992C4.91104 12.1173 2.86137 10.0677 2.86137 7.57878C2.86137 5.0899 4.91104 3.04023 7.39992 3.04023C9.8888 3.04023 11.9385 5.0899 11.9385 7.57878C11.9385 7.72518 11.9385 7.90819 11.9019 8.09119C11.5359 8.01799 10.9136 8.01799 10.4378 8.05459C10.2548 8.05459 10.2548 8.12779 10.4012 8.16439C11.8653 8.4572 12.8901 9.37223 13.1463 11.0559C13.1463 11.1291 13.1829 11.1291 13.2195 11.0925C13.8051 10.0677 14.1711 8.85982 14.1711 7.57878C14.1711 3.77225 11.0966 0.697754 7.29012 0.697754C3.48359 0.697754 0.409096 3.80885 0.409096 7.57878ZM12.2678 10.3971C12.524 10.5069 12.6338 10.8729 12.6338 11.0559C12.6704 11.3487 12.5972 11.4951 12.4874 11.4951C12.3776 11.4951 12.2312 11.3853 12.0848 11.1291C11.9384 10.8729 11.8652 10.6167 11.9384 10.4703C12.0482 10.3971 12.158 10.3605 12.2678 10.3971ZM10.7672 11.5317C10.9136 11.5317 11.0966 11.6049 11.2796 11.7513C11.5724 12.0075 11.6822 12.3004 11.5358 12.52C11.4626 12.6298 11.2796 12.703 11.1332 12.703C10.9502 12.703 10.7672 12.6298 10.6574 12.52C10.3646 12.2638 10.2914 11.8977 10.4744 11.6781C10.511 11.6049 10.6208 11.5317 10.7672 11.5317Z" fill="#F28A1A"/>
</symbol>
<symbol xmlns="http://www.w3.org/2000/svg" x="0px" y="0px" viewBox="0 0 50 50" id="close">
<path d="M 7.71875 6.28125 L 6.28125 7.71875 L 23.5625 25 L 6.28125 42.28125 L 7.71875 43.71875 L 25 26.4375 L 42.28125 43.71875 L 43.71875 42.28125 L 26.4375 25 L 43.71875 7.71875 L 42.28125 6.28125 L 25 23.5625 Z"></path>
</symbol>
<symbol xmlns="http://www.w3.org/2000/svg" x="0px" y="0px" viewBox="0 0 48 48" id="success">
<path fill="#4caf50" d="M44,24c0,11.045-8.955,20-20,20S4,35.045,4,24S12.955,4,24,4S44,12.955,44,24z"></path><path fill="#ccff90" d="M34.602,14.602L21,28.199l-5.602-5.598l-2.797,2.797L21,33.801l16.398-16.402L34.602,14.602z"></path>
</symbol>



<!--     svg use     -->
<!-- <symbol viewBox="0 0 152 45" fill="none" xmlns="http://www.w3.org/2000/svg" id="google-play-badge">
<g clip-path="url(#clip0_1_16009)">
<path d="M145.746 44.8881H5.82095C2.74259 44.8881 0.223938 42.3694 0.223938 39.291V5.70896C0.223938 2.6306 2.74259 0.111944 5.82095 0.111944H145.746C148.825 0.111944 151.343 2.6306 151.343 5.70896V39.291C151.343 42.3694 148.825 44.8881 145.746 44.8881Z" fill="white"/>
<path d="M119.928 33.694H122.017V19.7002H119.928V33.694ZM138.742 24.7411L136.348 30.8081H136.276L133.791 24.7411H131.541L135.268 33.2209L133.143 37.9377H135.322L141.065 24.7411H138.742ZM126.897 32.1046C126.212 32.1046 125.258 31.7626 125.258 30.9161C125.258 29.836 126.447 29.422 127.472 29.422C128.391 29.422 128.822 29.62 129.381 29.8903C129.218 31.1864 128.102 32.1046 126.897 32.1046V32.1046ZM127.149 24.4349C125.636 24.4349 124.07 25.1013 123.422 26.5776L125.276 27.3515C125.672 26.5776 126.41 26.3252 127.184 26.3252C128.265 26.3252 129.363 26.9737 129.381 28.1259V28.2698C129.002 28.0537 128.193 27.7298 127.202 27.7298C125.204 27.7298 123.169 28.8277 123.169 30.8802C123.169 32.7526 124.808 33.959 126.644 33.959C128.049 33.959 128.822 33.3289 129.309 32.5909H129.381V33.6709H131.397V28.3056C131.397 25.8215 129.543 24.4349 127.149 24.4349V24.4349ZM114.24 26.4446H111.269V21.6478H114.24C115.801 21.6478 116.688 22.9407 116.688 24.0461C116.688 25.1306 115.801 26.4446 114.24 26.4446ZM114.186 19.7002H109.181V33.694H111.269V28.3922H114.186C116.501 28.3922 118.777 26.7161 118.777 24.0461C118.777 21.3763 116.501 19.7002 114.186 19.7002ZM86.8937 32.1072C85.4507 32.1072 84.2425 30.899 84.2425 29.2396C84.2425 27.5627 85.4507 26.3362 86.8937 26.3362C88.3184 26.3362 89.4365 27.5627 89.4365 29.2396C89.4365 30.899 88.3184 32.1072 86.8937 32.1072V32.1072ZM89.2922 25.5246H89.22C88.7513 24.9657 87.8491 24.4608 86.7132 24.4608C84.3326 24.4608 82.1507 26.5526 82.1507 29.2396C82.1507 31.9087 84.3326 33.9826 86.7132 33.9826C87.8491 33.9826 88.7513 33.4776 89.22 32.9008H89.2922V33.586C89.2922 35.4077 88.3184 36.3815 86.7494 36.3815C85.4691 36.3815 84.6755 35.4615 84.3506 34.6862L82.5294 35.4436C83.0524 36.7059 84.4411 38.257 86.7494 38.257C89.202 38.257 91.276 36.8139 91.276 33.2974V24.7493H89.2922V25.5246ZM92.7185 33.694H94.8105V19.6997H92.7185V33.694ZM97.8944 29.0774C97.8403 27.2378 99.3191 26.3003 100.383 26.3003C101.213 26.3003 101.916 26.7148 102.15 27.3104L97.8944 29.0774ZM104.387 27.4905C103.99 26.4262 102.781 24.4608 100.311 24.4608C97.8582 24.4608 95.8205 26.3904 95.8205 29.2217C95.8205 31.8908 97.8403 33.9826 100.545 33.9826C102.728 33.9826 103.99 32.6481 104.513 31.8728L102.89 30.7905C102.349 31.5842 101.609 32.1072 100.545 32.1072C99.4813 32.1072 98.724 31.6201 98.2369 30.6646L104.603 28.0314L104.387 27.4905ZM53.6685 25.9216V27.9413H58.5015C58.3572 29.0774 57.9785 29.9069 57.4014 30.484C56.6983 31.1876 55.5981 31.9629 53.6685 31.9629C50.6928 31.9629 48.3666 29.5645 48.3666 26.5889C48.3666 23.6133 50.6928 21.2145 53.6685 21.2145C55.2736 21.2145 56.4455 21.8458 57.3113 22.6574L58.7359 21.2329C57.5278 20.0784 55.9225 19.1948 53.6685 19.1948C49.5926 19.1948 46.1663 22.5131 46.1663 26.5889C46.1663 30.6646 49.5926 33.9826 53.6685 33.9826C55.8688 33.9826 57.5278 33.2616 58.826 31.9087C60.1606 30.5742 60.5756 28.6987 60.5756 27.184C60.5756 26.7148 60.5396 26.2824 60.4671 25.9216H53.6685ZM66.0703 32.1072C64.6272 32.1072 63.3828 30.9169 63.3828 29.2217C63.3828 27.5085 64.6272 26.3362 66.0703 26.3362C67.5127 26.3362 68.7572 27.5085 68.7572 29.2217C68.7572 30.9169 67.5127 32.1072 66.0703 32.1072V32.1072ZM66.0703 24.4608C63.437 24.4608 61.2909 26.4625 61.2909 29.2217C61.2909 31.9629 63.437 33.9826 66.0703 33.9826C68.703 33.9826 70.8491 31.9629 70.8491 29.2217C70.8491 26.4625 68.703 24.4608 66.0703 24.4608ZM76.4955 32.1072C75.053 32.1072 73.8085 30.9169 73.8085 29.2217C73.8085 27.5085 75.053 26.3362 76.4955 26.3362C77.9381 26.3362 79.1825 27.5085 79.1825 29.2217C79.1825 30.9169 77.9381 32.1072 76.4955 32.1072ZM76.4955 24.4608C73.8623 24.4608 71.7166 26.4625 71.7166 29.2217C71.7166 31.9629 73.8623 33.9826 76.4955 33.9826C79.1283 33.9826 81.2744 31.9629 81.2744 29.2217C81.2744 26.4625 79.1283 24.4608 76.4955 24.4608Z" fill="#282739"/>
<path d="M11.9886 36.3688L11.9054 36.2892C11.5797 35.9445 11.3874 35.4093 11.3874 34.7163V34.8794V10.1227C11.3874 10.1205 11.3874 10.1188 11.3874 10.117C11.3874 10.1191 11.3874 10.1209 11.3874 10.1231V10.2867C11.3874 9.53624 11.6116 8.97094 11.9873 8.63199L25.8565 22.5008L11.9886 36.3688ZM11.3874 10.1156C11.3874 10.054 11.3891 9.99408 11.3922 9.93508C11.3891 9.99363 11.3874 10.054 11.3874 10.1156ZM11.3922 9.9324C11.3922 9.93162 11.3922 9.93072 11.3925 9.92982C11.3922 9.93072 11.3922 9.93162 11.3922 9.9324ZM11.3925 9.92456C11.3925 9.92411 11.3925 9.92367 11.3925 9.92322C11.3925 9.92367 11.3925 9.92411 11.3925 9.92456Z" fill="url(#paint0_linear_1_16009)"/>
<path d="M30.4789 27.2893L30.5843 27.2294L36.0614 24.1174C36.5836 23.8205 36.9317 23.4606 37.1053 23.0798C36.9321 23.4606 36.584 23.8209 36.0614 24.1178L30.5843 27.2299L30.4789 27.2893V27.2893ZM30.4802 27.1253L25.8565 22.5008L30.4798 17.8771L36.0614 21.0482C36.7702 21.4509 37.1682 21.97 37.2347 22.5004C37.2347 22.5008 37.2347 22.5017 37.2347 22.5025C37.1682 23.0317 36.7702 23.5512 36.0614 23.9538L30.4802 27.1253" fill="url(#paint1_linear_1_16009)"/>
<path d="M12.9773 36.897C12.5899 36.897 12.2518 36.771 11.9882 36.5332L11.9887 36.5327C12.2523 36.7706 12.5908 36.897 12.9782 36.897C13.0118 36.897 13.0459 36.8961 13.0805 36.8944C13.0455 36.8961 13.0109 36.897 12.9773 36.897V36.897ZM12.9778 36.733C12.5903 36.7334 12.2523 36.607 11.9887 36.3692V36.3688L25.8565 22.5009L30.4802 27.1254L14.2318 36.3574C13.7823 36.6123 13.3563 36.733 12.9778 36.733V36.733ZM11.9847 36.5301C11.9602 36.5079 11.9362 36.4842 11.9125 36.4597L11.9847 36.5301Z" fill="url(#paint2_linear_1_16009)"/>
<path d="M25.8565 22.5009L11.9873 8.63201C12.2509 8.39459 12.5885 8.26865 12.9755 8.26865C13.3551 8.26865 13.7814 8.38977 14.2318 8.64511L30.4797 17.8772L25.8565 22.5009V22.5009ZM30.5843 17.7727L14.2318 8.48168C13.7814 8.22623 13.3551 8.10511 12.9755 8.10511C12.9737 8.10511 12.9725 8.10511 12.9707 8.10511C12.9729 8.10511 12.9746 8.10511 12.9773 8.10511C13.356 8.10511 13.7818 8.22578 14.2318 8.48123L30.5843 17.7727V17.7727Z" fill="url(#paint3_linear_1_16009)"/>
<path d="M13.0804 36.8944C13.4324 36.8743 13.822 36.7531 14.2317 36.521L30.4788 27.2894L14.2317 36.521C13.8224 36.7536 13.4324 36.8743 13.0804 36.8944V36.8944ZM11.9881 36.5332L11.9847 36.5302C11.9859 36.5311 11.9872 36.5323 11.9881 36.5332ZM11.9124 36.4597L11.9054 36.4528V36.4524C11.9081 36.4549 11.9102 36.4575 11.9124 36.4597Z" fill="white"/>
<path d="M30.4788 27.2893L30.5843 27.2294L30.4788 27.2893Z" fill="url(#paint4_linear_1_16009)"/>
<path d="M12.9781 36.897C12.5907 36.897 12.2522 36.7706 11.9886 36.5327L11.9881 36.5332C11.9872 36.5323 11.9859 36.531 11.9847 36.5301L11.9124 36.4597C11.9102 36.4575 11.9081 36.4549 11.9054 36.4523L11.9886 36.3692C12.2522 36.607 12.5902 36.7334 12.9777 36.733C13.3563 36.733 13.7822 36.6123 14.2317 36.3574L30.4801 27.1254L30.5842 27.2295L30.4788 27.2894L14.2317 36.521C13.822 36.7531 13.4324 36.8742 13.0804 36.8944C13.0458 36.8961 13.0117 36.897 12.9781 36.897" fill="url(#paint5_linear_1_16009)"/>
<path d="M11.9055 36.4528C11.5797 36.1081 11.3874 35.5729 11.3874 34.8799V34.8794C11.3874 35.5729 11.5797 36.1076 11.9055 36.4523V36.4528" fill="white"/>
<path d="M11.9054 36.4524C11.5797 36.1077 11.3874 35.573 11.3874 34.8795V34.7164C11.3874 35.4094 11.5797 35.9446 11.9054 36.2893L11.9886 36.3689L11.9054 36.4524" fill="url(#paint6_linear_1_16009)"/>
<path d="M11.9054 36.4524L11.9886 36.3689V36.3692L11.9054 36.4524" fill="url(#paint7_linear_1_16009)"/>
<path d="M37.1052 23.0798C37.1913 22.8909 37.2346 22.6968 37.2346 22.5026C37.2346 22.5022 37.2346 22.5018 37.2346 22.5018C37.2346 22.6963 37.1913 22.8904 37.1052 23.0798Z" fill="white"/>
<path d="M30.5843 27.2295L30.4802 27.1254L36.0614 23.9539C36.7702 23.5512 37.1682 23.0317 37.2346 22.5026C37.2346 22.6968 37.1913 22.8909 37.1052 23.0799C36.9316 23.4607 36.5836 23.8206 36.0614 24.1174L30.5843 27.2295Z" fill="url(#paint8_linear_1_16009)"/>
<path d="M37.2347 22.5009V22.5004C37.2342 21.9148 36.8429 21.3294 36.0614 20.8851L30.5843 17.7731H30.5839L30.5843 17.7727L36.0614 20.8847C36.8438 21.329 37.2356 21.9153 37.2347 22.5009Z" fill="#282739"/>
<path d="M37.2347 22.5004C37.1682 21.97 36.7702 21.4509 36.0614 21.0482L30.4797 17.8771L30.5838 17.773H30.5843L36.0614 20.8851C36.8429 21.3294 37.2342 21.9148 37.2347 22.5004Z" fill="url(#paint9_linear_1_16009)"/>
<path d="M11.3874 10.1171C11.3874 10.1166 11.3874 10.1162 11.3874 10.1157C11.3874 10.1162 11.3874 10.1166 11.3874 10.1171ZM11.3922 9.93516C11.3922 9.93427 11.3922 9.93337 11.3922 9.93248C11.3922 9.93337 11.3922 9.93427 11.3922 9.93516ZM11.3925 9.9299C11.3925 9.92811 11.3925 9.92643 11.3925 9.92464C11.3925 9.92643 11.3925 9.92811 11.3925 9.9299ZM11.3925 9.9233C11.4574 8.77334 12.0827 8.10908 12.9672 8.10517C12.5837 8.1074 12.2497 8.23334 11.9882 8.46897V8.46852L11.985 8.47166C11.9575 8.49651 11.9313 8.52281 11.9054 8.5499C11.6116 8.86076 11.4262 9.32643 11.3925 9.9233Z" fill="#282739"/>
<path d="M11.3874 10.2867V10.1232C11.3874 10.121 11.3874 10.1192 11.3874 10.117C11.3874 10.1166 11.3874 10.1161 11.3874 10.1157C11.3874 10.054 11.3891 9.99368 11.3922 9.93514C11.3922 9.93424 11.3922 9.93335 11.3922 9.93245C11.3922 9.93167 11.3922 9.93077 11.3925 9.92988C11.3925 9.92809 11.3925 9.92641 11.3925 9.92462C11.3925 9.92417 11.3925 9.92372 11.3925 9.92327C11.4262 9.32641 11.6116 8.86073 11.9055 8.54988L11.9873 8.63204C11.6116 8.971 11.3874 9.53629 11.3874 10.2867V10.2867ZM11.985 8.47163L11.9882 8.4685C11.9873 8.46984 11.9859 8.47073 11.985 8.47163Z" fill="url(#paint10_linear_1_16009)"/>
<path d="M30.4796 17.8772L14.2317 8.64514C13.7813 8.38981 13.355 8.26869 12.9754 8.26869C12.5885 8.26869 12.2508 8.39462 11.9872 8.63205L11.9054 8.54988C11.9313 8.52279 11.9574 8.49649 11.985 8.47163C11.9859 8.47074 11.9872 8.46985 11.9881 8.46895C12.2496 8.23332 12.5836 8.10738 12.9671 8.10514C12.968 8.10514 12.9693 8.10514 12.9706 8.10514C12.9724 8.10514 12.9736 8.10514 12.9754 8.10514C13.355 8.10514 13.7813 8.22626 14.2317 8.48171L30.5842 17.7728L30.5838 17.7731L30.4796 17.8772Z" fill="url(#paint11_linear_1_16009)"/>
<path d="M48.914 11.2688C48.9271 12.3313 48.7142 13.1883 48.2769 13.839H51.6722V8.77285H48.914V11.2688ZM47.3661 16.0896H46.541V13.839H47.1978C47.7793 13.3379 48.0635 12.4818 48.0518 11.2688V7.94773H52.5359V13.839H53.2859V16.0896H52.4603V14.6642H47.3661V16.0896" fill="#282739"/>
<path d="M48.914 11.2688L48.8021 11.2701L48.803 11.3606C48.8026 12.3659 48.5927 13.1687 48.1837 13.7765L48.0667 13.951H51.7842V8.6609H48.8021V11.2697V11.2701L48.914 11.2688H49.026V8.88478H51.5603V13.7271H48.2769V13.839L48.3697 13.9012C48.8099 13.2461 49.0269 12.396 49.0269 11.3606L49.026 11.2674L48.914 11.2688H49.026H48.914ZM47.3661 16.0896V15.9777H46.653V13.951H47.1978H47.2393L47.2708 13.9239C47.8759 13.4018 48.1642 12.532 48.1642 11.3422L48.1637 11.2679V11.2688V8.05967H52.4239V13.951H53.1739V15.9777H52.5723V14.6641V14.5522H47.2542V16.0896H47.3661V15.9777V16.0896H47.4781V14.7761H52.3484V16.0896V16.2015H53.2859H53.3978V13.7271H52.6478V7.83579H47.9398V11.2692V11.2697L47.9403 11.3422C47.9398 12.5006 47.6591 13.2951 47.1247 13.7537L47.1978 13.839V13.7271H46.541H46.4291V16.2015H47.3661H47.4781V16.0896H47.3661" fill="#282739"/>
<path d="M55.7288 13.2338C56.2264 13.7371 56.8343 13.9885 57.5536 13.9885C58.2728 13.9885 58.8815 13.7371 59.3778 13.2338C59.8754 12.7305 60.1246 12.0872 60.1246 11.3059C60.1246 10.5245 59.8754 9.88121 59.3778 9.37793C58.8815 8.87465 58.2728 8.62323 57.5536 8.62323C56.8343 8.62323 56.2264 8.87465 55.7288 9.37793C55.2325 9.88121 54.9833 10.5245 54.9833 11.3059C54.9833 12.0872 55.2325 12.7305 55.7288 13.2338ZM60.0163 13.7961C59.3559 14.4751 58.5352 14.8141 57.5536 14.8141C56.5719 14.8141 55.7507 14.4751 55.0917 13.7961C54.4314 13.1179 54.1022 12.2876 54.1022 11.3059C54.1022 10.3242 54.4314 9.49379 55.0917 8.81565C55.7507 8.13651 56.5719 7.79722 57.5536 7.79722C58.5295 7.79722 59.3485 8.1383 60.0118 8.82002C60.6742 9.50173 61.0057 10.3303 61.0057 11.3059C61.0057 12.2876 60.6756 13.1179 60.0163 13.7961Z" fill="#282739"/>
<path d="M55.7288 13.2339L55.6493 13.3126C56.1647 13.8361 56.8079 14.1019 57.5536 14.1006C58.2987 14.1019 58.9432 13.8361 59.4573 13.3126C59.9764 12.7888 60.2375 12.111 60.2366 11.306C60.2375 10.501 59.9764 9.82324 59.4573 9.29936C58.9432 8.77592 58.2987 8.51006 57.5536 8.51141C56.8079 8.51006 56.1647 8.77592 55.6493 9.29936C55.1315 9.82324 54.8705 10.501 54.8714 11.306C54.8705 12.111 55.1315 12.7888 55.6493 13.3126L55.7288 13.2339L55.8089 13.1552C55.3339 12.672 55.0965 12.0642 55.0953 11.306C55.0965 10.5478 55.3339 9.93999 55.8089 9.45674H55.8084C56.2876 8.97361 56.86 8.73663 57.5536 8.73529C58.2466 8.73663 58.8203 8.97361 59.2982 9.45674L59.3 9.45853L59.2982 9.45674C59.7744 9.93999 60.0115 10.5478 60.0127 11.306C60.0115 12.0642 59.7744 12.672 59.2982 13.1552C58.8203 13.6384 58.2466 13.8754 57.5536 13.8767C56.86 13.8754 56.2876 13.6384 55.8084 13.1552L55.7288 13.2339ZM60.0163 13.7962L59.9362 13.7184C59.2947 14.3761 58.5094 14.7009 57.5536 14.7023C56.5973 14.7009 55.8124 14.3761 55.1717 13.7184C54.5315 13.0585 54.2154 12.2628 54.2142 11.306C54.2154 10.3492 54.5315 9.55346 55.1717 8.89357C55.8124 8.23592 56.5973 7.91062 57.5536 7.90928C58.5037 7.91062 59.2869 8.23727 59.9319 8.89839C60.5746 9.5613 60.8925 10.3558 60.8938 11.306C60.8925 12.2628 60.5755 13.0585 59.9362 13.7184L60.0163 13.7962L60.0966 13.874C60.7753 13.1771 61.1185 12.3126 61.1177 11.306C61.1185 10.3051 60.7744 9.44241 60.0923 8.74234C59.4101 8.03958 58.5558 7.68417 57.5536 7.6854C56.5461 7.68417 55.689 8.0379 55.0113 8.73797V8.73753C54.3313 9.43491 53.9894 10.2994 53.9903 11.306C53.9894 12.3126 54.3313 13.1771 55.0113 13.8745V13.874C55.689 14.5741 56.5461 14.927 57.5536 14.9261C58.5606 14.927 59.4176 14.5741 60.0966 13.874L60.0163 13.7962Z" fill="#282739"/>
<path d="M65.3501 14.8141C64.3619 14.8141 63.5333 14.4796 62.8642 13.8101C62.1939 13.1411 61.8607 12.3063 61.8607 11.3059C61.8607 10.3054 62.1939 9.47062 62.8642 8.80166C63.5333 8.13214 64.3619 7.79722 65.3501 7.79722C66.3623 7.79722 67.1853 8.16326 67.8171 8.89479L67.2159 9.47677C66.7603 8.90744 66.1371 8.62323 65.3501 8.62323C64.6176 8.62323 63.9997 8.87028 63.4969 9.36438C62.9932 9.85849 62.7417 10.5057 62.7417 11.3059C62.7417 12.106 62.9932 12.7537 63.4969 13.2474C63.9997 13.7415 64.6176 13.9885 65.3501 13.9885C66.1568 13.9885 66.8442 13.6636 67.4139 13.0134L68.0139 13.6133C67.707 13.9824 67.323 14.2749 66.8595 14.49C66.3973 14.7061 65.8932 14.8141 65.3501 14.8141" fill="#282739"/>
<path d="M65.35 14.8142V14.7023C64.3868 14.7009 63.5931 14.3795 62.9433 13.7311C62.2939 13.0817 61.9734 12.2816 61.9725 11.306C61.9734 10.3304 62.2939 9.53029 62.9433 8.88092C63.5931 8.23201 64.3868 7.91063 65.35 7.90928C66.3356 7.91107 67.1192 8.25999 67.7322 8.9679L67.8171 8.89492L67.7393 8.81443L67.138 9.39686L67.2158 9.47689L67.3033 9.40693C66.8284 8.81141 66.1634 8.50973 65.35 8.51141C64.5922 8.51051 63.9402 8.77078 63.4186 9.28447C62.8917 9.80007 62.6284 10.483 62.6297 11.306C62.6284 12.129 62.8917 12.8128 63.4186 13.3275C63.9402 13.8412 64.5922 14.1015 65.35 14.1006C66.1873 14.1019 66.9128 13.7582 67.4978 13.0874L67.4138 13.0135L67.3347 13.0927L67.9347 13.6926L68.0139 13.6134L67.9277 13.5422C67.6312 13.8981 67.2622 14.1797 66.8122 14.3887C66.3649 14.5977 65.8787 14.7018 65.35 14.7023V14.8142V14.9261C65.9079 14.9261 66.4292 14.8151 66.9066 14.5917C67.3842 14.3704 67.7821 14.0673 68.0999 13.6852L68.1651 13.6069L67.4931 12.9344L67.4082 12.8495L67.3296 12.9397C66.7759 13.5698 66.1262 13.8754 65.35 13.8767C64.6425 13.8754 64.0597 13.6419 63.5755 13.1675H63.5752C63.0942 12.6952 62.8545 12.0834 62.8536 11.306C62.8545 10.5286 63.0942 9.91771 63.5752 9.44454H63.5755C64.0597 8.97014 64.6425 8.73663 65.35 8.73529C66.1104 8.73708 66.6915 9.00383 67.1284 9.54686L67.2053 9.64312L67.8949 8.9754L67.971 8.90186L67.9019 8.82193C67.2516 8.06633 66.3889 7.68417 65.35 7.6854C64.3364 7.68451 63.4728 8.03309 62.785 8.72264C62.0937 9.41085 61.7473 10.2811 61.7487 11.306C61.7473 12.3309 62.0937 13.2011 62.785 13.8898C63.4728 14.5789 64.3364 14.927 65.35 14.9261V14.8142" fill="#282739"/>
<path d="M71.5045 14.6642H70.641V8.77288H68.7651V7.94776H73.3804V8.77288H71.5045V14.6642Z" fill="#282739"/>
<path d="M71.5045 14.6642V14.5522H70.753V8.66094H68.8771V8.05971H73.2685V8.66094H71.3926V14.6642H71.5045V14.5522V14.6642H71.6165V8.88482H73.4924V7.94777V7.83582H68.6532V8.77288V8.88482H70.5291V14.7761H71.5045H71.6165V14.6642H71.5045" fill="#282739"/>
<path d="M75.2549 12.0371H77.4868L76.3892 9.00773H76.352L75.2549 12.0371ZM73.3507 14.6642L75.8838 7.94776H76.8585L79.3911 14.6642H78.4348L77.7871 12.8438H74.9642L74.3075 14.6642H73.3507Z" fill="#282739"/>
<path d="M75.255 12.0371V12.149H77.6465L76.4675 8.89579H76.3521H76.2734L75.0955 12.149H75.255V12.0371L75.3604 12.0756L76.4576 9.04579L76.3521 9.00773V9.11967H76.3893V9.00773L76.2839 9.04579L77.3272 11.9251H75.255V12.0371L75.3604 12.0756L75.255 12.0371ZM73.3508 14.6642L73.4557 14.7036L75.9612 8.05971H76.7806L79.2293 14.5522H78.5136L77.8663 12.7319H74.8856L74.2287 14.5522H73.3508V14.6642L73.4557 14.7036L73.3508 14.6642V14.7761H74.3075H74.3862L75.043 12.9558H77.7085L78.3557 14.7761H79.3912H79.5529L76.9359 7.83582H75.8839H75.8064L73.1889 14.7761H73.3508V14.6642" fill="#282739"/>
<path d="M80.3671 14.6642V7.94776H85.2264V14.6642H84.3629V8.77288H81.2298V14.6642H80.3671Z" fill="#282739"/>
<path d="M80.3671 14.6642H80.479V8.05971H85.1144V14.5522H84.4748V8.66094H81.1178V14.5522H80.3671V14.6642H80.479H80.3671V14.7761H81.2298H81.3417V8.88482H84.2509V14.7761H85.2264H85.3383V7.83582H80.2551V14.7761H80.3671V14.6642" fill="#282739"/>
<path d="M86.7656 14.6642V7.94776H87.6284V10.8272H90.9866V7.94776H91.8497V14.6642H90.9866V11.634H87.6284V14.6642H86.7656Z" fill="#282739"/>
<path d="M86.7655 14.6642H86.8774V8.05971H87.5164L87.516 10.9391H91.0985V8.05971H91.7377V14.5522H91.0981L91.0985 11.522H87.516V14.5522H86.7655V14.6642H86.8774H86.7655V14.7761H87.6283H87.7403V11.7459H90.8742V14.7761H91.8496H91.9616V7.83582H90.9866H90.8742V10.7153H87.7398L87.7403 7.83582H86.7655H86.6536V14.7761H86.7655V14.6642Z" fill="#282739"/>
<path d="M94.5926 13.2338C95.0903 13.7371 95.6976 13.9885 96.4169 13.9885C97.1367 13.9885 97.7453 13.7371 98.2417 13.2338C98.7388 12.7305 98.9885 12.0872 98.9885 11.3059C98.9885 10.5245 98.7388 9.88121 98.2417 9.37793C97.7453 8.87465 97.1367 8.62323 96.4169 8.62323C95.6976 8.62323 95.0903 8.87465 94.5926 9.37793C94.0964 9.88121 93.8471 10.5245 93.8471 11.3059C93.8471 12.0872 94.0964 12.7305 94.5926 13.2338ZM98.88 13.7961C98.2198 14.4751 97.3991 14.8141 96.4169 14.8141C95.4357 14.8141 94.6146 14.4751 93.9556 13.7961C93.2953 13.1179 92.966 12.2876 92.966 11.3059C92.966 10.3242 93.2953 9.49379 93.9556 8.81565C94.6146 8.13651 95.4357 7.79722 96.4169 7.79722C97.3934 7.79722 98.2119 8.1383 98.8757 8.82002C99.5381 9.50173 99.8696 10.3303 99.8696 11.3059C99.8696 12.2876 99.5395 13.1179 98.88 13.7961Z" fill="#282739"/>
<path d="M94.5927 13.2339L94.5131 13.3126C95.0287 13.8361 95.6719 14.1019 96.417 14.1006C97.1625 14.1019 97.8066 13.8361 98.3213 13.3126C98.8404 12.7888 99.1014 12.111 99.1005 11.306C99.1014 10.501 98.8404 9.82324 98.3213 9.29936C97.8066 8.77592 97.1625 8.51006 96.417 8.51141C95.6719 8.51006 95.0287 8.77592 94.5131 9.29936C93.9954 9.82324 93.7343 10.501 93.7352 11.306C93.7343 12.111 93.9954 12.7888 94.5131 13.3126L94.5927 13.2339L94.6723 13.1552C94.1974 12.672 93.96 12.0642 93.9591 11.306C93.96 10.5478 94.1974 9.93999 94.6723 9.45674C95.1516 8.97361 95.7239 8.73663 96.417 8.73529C97.1106 8.73663 97.6842 8.97361 98.1621 9.45674L98.1651 9.46032L98.1621 9.45674C98.6379 9.93999 98.8753 10.5478 98.8766 11.306C98.8753 12.0642 98.6379 12.672 98.1621 13.1552C97.6842 13.6384 97.1106 13.8754 96.417 13.8767C95.7239 13.8754 95.1516 13.6384 94.6723 13.1552L94.5927 13.2339ZM98.8801 13.7962L98.7996 13.7184C98.1582 14.3761 97.3733 14.7009 96.417 14.7023C95.4611 14.7009 94.6762 14.3761 94.0357 13.7184L94.0325 13.715L94.0357 13.7184C93.395 13.0585 93.0789 12.2628 93.078 11.306C93.0789 10.3492 93.395 9.55346 94.0357 8.89357C94.6762 8.23592 95.4611 7.91062 96.417 7.90928C97.3672 7.91062 98.1504 8.23727 98.7957 8.89839C99.4385 9.5613 99.7564 10.3558 99.7577 11.306C99.7564 12.2628 99.4394 13.0585 98.7996 13.7184L98.8801 13.7962L98.9606 13.874C99.6392 13.1771 99.9825 12.3126 99.9816 11.306C99.9825 10.3051 99.6379 9.44241 98.9562 8.74234C98.2741 8.03958 97.4192 7.68417 96.417 7.6854C95.41 7.68417 94.5529 8.0379 93.8751 8.73797V8.73753C93.1952 9.43491 92.8532 10.2994 92.8541 11.306C92.8532 12.3126 93.1952 13.1771 93.8751 13.8745V13.874C94.5529 14.5741 95.41 14.927 96.417 14.9261C97.4244 14.927 98.2814 14.5741 98.9606 13.874L98.8801 13.7962" fill="#282739"/>
<path d="M103.398 14.6642V7.94776H104.26V10.8272H107.618V7.94776H108.483V14.6642H107.618V11.634H104.26V14.6642H103.398Z" fill="#282739"/>
<path d="M103.398 14.6642H103.51V8.05971H104.148V10.9391H107.73V8.05971H108.371V14.5522H107.73V11.522H104.148V14.5522H103.398V14.6642H103.51H103.398V14.7761H104.26H104.372V11.7459H107.506V14.7761H108.483H108.594V7.83582H107.618H107.506V10.7153H104.372V7.83582H103.398H103.286V14.7761H103.398V14.6642Z" fill="#282739"/>
<path d="M111.362 12.0371H113.594L112.497 9.00773H112.46L111.362 12.0371ZM109.458 14.6642L111.991 7.94776H112.966L115.499 14.6642H114.542L113.895 12.8438H111.071L110.415 14.6642H109.458Z" fill="#282739"/>
<path d="M111.362 12.0371V12.149H113.754L112.575 8.89579H112.46H112.381L111.203 12.149H111.362V12.0371L111.467 12.0756L112.565 9.04579L112.46 9.00773V9.11967H112.497V9.00773L112.391 9.04579L113.435 11.9251H111.362V12.0371L111.467 12.0756L111.362 12.0371ZM109.458 14.6642L109.563 14.7036L112.068 8.05971H112.889L115.337 14.5522H114.621L113.973 12.7319H110.992L110.335 14.5522H109.458V14.6642L109.563 14.7036L109.458 14.6642V14.7761H110.415H110.493L111.15 12.9558H113.815L114.462 14.7761H115.499H115.66L113.043 7.83582H111.991H111.914L109.295 14.7761H109.458V14.6642" fill="#282739"/>
</g>
<defs>
<linearGradient id="paint0_linear_1_16009" x1="24.6267" y1="9.86154" x2="5.84031" y2="28.6479" gradientUnits="userSpaceOnUse">
<stop stop-color="#00A0FF"/>
<stop offset="0.00657445" stop-color="#00A1FF"/>
<stop offset="0.2601" stop-color="#00BEFF"/>
<stop offset="0.5122" stop-color="#00D2FF"/>
<stop offset="0.7604" stop-color="#00DFFF"/>
<stop offset="1" stop-color="#00E3FF"/>
</linearGradient>
<linearGradient id="paint1_linear_1_16009" x1="38.0983" y1="22.5015" x2="11.0121" y2="22.5015" gradientUnits="userSpaceOnUse">
<stop stop-color="#FFE000"/>
<stop offset="0.4087" stop-color="#FFBD00"/>
<stop offset="0.7754" stop-color="#FFA500"/>
<stop offset="1" stop-color="#FF9C00"/>
</linearGradient>
<linearGradient id="paint2_linear_1_16009" x1="28.0154" y1="25.0703" x2="2.53966" y2="50.546" gradientUnits="userSpaceOnUse">
<stop stop-color="#FF3A44"/>
<stop offset="1" stop-color="#C31162"/>
</linearGradient>
<linearGradient id="paint3_linear_1_16009" x1="8.39257" y1="0.30914" x2="19.7685" y2="11.6851" gradientUnits="userSpaceOnUse">
<stop stop-color="#32A071"/>
<stop offset="0.0685" stop-color="#2DA771"/>
<stop offset="0.4762" stop-color="#15CF74"/>
<stop offset="0.8009" stop-color="#06E775"/>
<stop offset="1" stop-color="#00F076"/>
</linearGradient>
<linearGradient id="paint4_linear_1_16009" x1="38.0982" y1="22.5016" x2="11.0122" y2="22.5016" gradientUnits="userSpaceOnUse">
<stop stop-color="#CCB300"/>
<stop offset="0.4087" stop-color="#CC9700"/>
<stop offset="0.7754" stop-color="#CC8400"/>
<stop offset="1" stop-color="#CC7D00"/>
</linearGradient>
<linearGradient id="paint5_linear_1_16009" x1="28.0153" y1="25.0703" x2="2.53957" y2="50.546" gradientUnits="userSpaceOnUse">
<stop stop-color="#CC2E36"/>
<stop offset="1" stop-color="#9C0E4E"/>
</linearGradient>
<linearGradient id="paint6_linear_1_16009" x1="24.6267" y1="9.86165" x2="5.84033" y2="28.6481" gradientUnits="userSpaceOnUse">
<stop stop-color="#008DE0"/>
<stop offset="0.00657445" stop-color="#008DE0"/>
<stop offset="0.2601" stop-color="#00A7E0"/>
<stop offset="0.5122" stop-color="#00B8E0"/>
<stop offset="0.7604" stop-color="#00C4E0"/>
<stop offset="1" stop-color="#00C7E0"/>
</linearGradient>
<linearGradient id="paint7_linear_1_16009" x1="28.0158" y1="25.0702" x2="2.53992" y2="50.5467" gradientUnits="userSpaceOnUse">
<stop stop-color="#E0333C"/>
<stop offset="1" stop-color="#AB0F56"/>
</linearGradient>
<linearGradient id="paint8_linear_1_16009" x1="38.0983" y1="22.5016" x2="11.012" y2="22.5016" gradientUnits="userSpaceOnUse">
<stop stop-color="#E0C500"/>
<stop offset="0.4087" stop-color="#E0A600"/>
<stop offset="0.7754" stop-color="#E09100"/>
<stop offset="1" stop-color="#E08900"/>
</linearGradient>
<linearGradient id="paint9_linear_1_16009" x1="38.0983" y1="22.5015" x2="11.0121" y2="22.5015" gradientUnits="userSpaceOnUse">
<stop stop-color="#FFE840"/>
<stop offset="0.4087" stop-color="#FFCE40"/>
<stop offset="0.7754" stop-color="#FFBC40"/>
<stop offset="1" stop-color="#FFB540"/>
</linearGradient>
<linearGradient id="paint10_linear_1_16009" x1="24.6267" y1="9.86159" x2="5.84034" y2="28.648" gradientUnits="userSpaceOnUse">
<stop stop-color="#40B8FF"/>
<stop offset="0.00657445" stop-color="#40B9FF"/>
<stop offset="0.2601" stop-color="#40CEFF"/>
<stop offset="0.5122" stop-color="#40DDFF"/>
<stop offset="0.7604" stop-color="#40E7FF"/>
<stop offset="1" stop-color="#40EAFF"/>
</linearGradient>
<linearGradient id="paint11_linear_1_16009" x1="8.39249" y1="0.309172" x2="19.7684" y2="11.6851" gradientUnits="userSpaceOnUse">
<stop stop-color="#65B895"/>
<stop offset="0.0685" stop-color="#62BD95"/>
<stop offset="0.4762" stop-color="#50DB97"/>
<stop offset="0.8009" stop-color="#44ED98"/>
<stop offset="1" stop-color="#40F498"/>
</linearGradient>
<clipPath id="clip0_1_16009">
</clipPath>
</defs>
</symbol> -->



























</svg>